<svg width="100" height="81" viewBox="0 0 100 81" fill="none" xmlns="http://www.w3.org/2000/svg">
<path d="M41.5083 36.5111L37.7383 28.8711L42.7383 34.5011H62.8983L41.5083 36.5111Z" fill="url(#paint0_linear)"/>
<path d="M47.17 21.2188L44 22.8288H49C49.06 21.5388 47.8 21.2188 47.17 21.2188Z" fill="url(#paint1_linear)"/>
<path d="M13.8386 24.8402L10.6886 26.0502C9.42859 17.9902 10.6886 11.5602 10.0586 11.5602C41.2586 -9.3698 76.7286 2.8402 90.5586 11.5602V17.5602L86.7886 16.7502V13.5702C54.5886 -5.10981 24.3186 5.79019 13.2086 13.5702L13.8386 24.8402Z" fill="white"/>
<path d="M8.18043 38.9317H13.1804L15.0604 38.5317C11.0604 38.8517 10.0604 37.5917 10.0604 36.9217V33.2917L13.2104 34.1017C11.9611 33.8186 10.8482 33.1119 10.0604 32.1017C12.0604 30.1717 16.3504 29.6817 18.2404 29.6817L18.8704 30.8917C25.8704 20.8917 33.9604 26.7317 37.1104 30.8917C37.6104 30.5717 36.4804 28.6117 35.8504 27.6717L67.9204 24.8517L70.4404 23.6417C69.1804 24.8517 66.6704 27.9117 66.6704 30.4917C70.1904 22.4917 79.0304 23.6417 83.0204 25.2517C83.0204 24.6117 80.9204 23.3817 79.8704 22.8417L82.3904 23.6417L88.0504 23.2417L89.9404 25.2417H87.4204C87.0004 25.5117 86.2904 26.1317 86.7904 26.4517C88.094 26.7848 89.2941 27.4374 90.2823 28.3505C91.2704 29.2636 92.0156 30.4085 92.4504 31.6817C93.0804 31.6817 93.0804 27.2617 91.1904 24.8417C90.664 24.1467 90.3791 23.2986 90.3791 22.4267C90.3791 21.5548 90.664 20.7068 91.1904 20.0117H88.0504C85.5304 22.8317 49.6804 24.4417 41.5104 23.6317C34.9704 22.9917 32.5104 23.6317 32.0704 24.0417C32.4904 24.3017 33.3304 24.9217 33.3304 25.2417C27.8004 21.7017 22.2204 24.8417 20.1304 26.8517V25.6517C17.6104 26.0517 6.29043 31.6517 8.18043 32.4917C8.89078 33.4148 9.27594 34.5469 9.27594 35.7117C9.27594 36.8765 8.89078 38.0086 8.18043 38.9317Z" fill="white"/>
<path d="M0 42.5486V45.7686L94.34 35.3086L0 42.5486Z" fill="white"/>
<path d="M21.3789 59.8586V61.0686L29.5589 60.2686V59.0586L21.3789 59.8586Z" fill="white"/>
<path d="M57.8616 44.5708L56.6016 55.0008C57.6016 55.3208 62.8916 54.6008 65.4116 54.2008V51.4108C65.4116 52.0508 63.3116 52.2108 62.2616 52.2108V49.8008C64.7816 49.1608 64.9916 48.7308 64.7816 48.5908V47.0008L62.2616 47.4008V45.7708C63.538 45.6898 64.7969 45.4306 66.0016 45.0008V42.5508C62.8516 42.9608 56.6916 43.7608 57.1916 43.7608C57.6916 43.7608 57.8616 44.3008 57.8616 44.5708Z" fill="white"/>
<path d="M79.2381 51.4083C78.7381 51.7283 79.4481 52.6183 79.8681 53.0183L83.6481 52.6183C82.1381 51.6183 83.4381 48.7283 84.2781 47.3783L84.8981 52.2083L88.6781 51.8083L89.9381 46.5783L91.1881 51.4083L95.5981 50.9983C95.4124 50.858 95.2616 50.6767 95.1575 50.4686C95.0534 50.2604 94.9989 50.031 94.9981 49.7983L93.0781 39.7383L88.6781 40.1383C89.6781 41.1383 88.2581 43.7583 87.4181 44.9683L86.7881 40.5383C84.8981 40.6683 81.2581 41.0183 81.7881 41.3483C82.3181 41.6783 82.4181 42.0183 82.4181 42.1483C81.5481 45.0983 79.7481 51.0883 79.2381 51.4083Z" fill="white"/>
<path d="M46.5391 21.6198L47.7991 21.9998H48.4291L47.7991 21.5898L46.5391 21.6198Z" fill="white"/>
<path d="M59.7494 22.83C67.2994 22.83 78.8294 21.22 83.6494 20.41C73.5894 16 60.3794 16 56.6094 16C53.6094 16 44.0294 20.3 39.6094 22.45H42.7494C53.3194 15.68 62.6694 16.45 66.0194 17.61L65.3894 21.61C64.4094 21.94 61.2194 22.56 59.7494 22.83ZM67.9194 17.6C70.4394 18 75.2194 18.97 74.2094 19.6C73.1994 20.23 69.2094 20.94 67.2894 21.21L67.9194 17.6Z" fill="url(#paint2_linear)"/>
<path d="M5 64.6889L28.89 63.0789C34 69.9289 49.06 80.3889 49.06 79.9989C55.06 76.1289 66.67 64.9989 71.7 59.8689L100 57.8689V54.6289L5 64.6889ZM49 75.5589C44.44 72.0789 35 64.6989 34 63.0889L66 60.6689C62.05 64.6989 53.08 73.3089 49.06 75.5589H49Z" fill="url(#paint3_linear)"/>
<path d="M17.0008 48.1914L11.3408 48.5914C12.0008 50.2014 8.80078 57.8514 8.18078 58.6614C7.77587 59.2503 7.55646 59.9468 7.55078 60.6614L11.9508 60.2614C11.7752 59.8822 11.6843 59.4693 11.6843 59.0514C11.6843 58.6335 11.7752 58.2206 11.9508 57.8414H13.8408L14.4708 59.8414L19.4708 59.4414V59.0414C18.4908 59.0614 17.4008 51.8114 17.0008 48.1914ZM12.6008 55.4414L13.2308 53.8314L13.8608 55.4414H12.6008Z" fill="white"/>
<path d="M39.6214 46.1798C37.7414 45.7698 32.8314 46.2598 30.8214 46.5798C31.3214 46.8998 31.4514 47.2498 31.4514 47.3798L30.1914 58.2498C30.1914 58.2498 36.4814 58.6598 38.9914 57.0398C42.7714 54.6298 42.1414 46.9998 39.6214 46.1798ZM37.1114 50.6098C37.0798 51.9652 36.8679 53.3103 36.4814 54.6098C36.4814 54.7498 36.2314 55.0098 35.2214 55.0098L35.8514 48.5698C36.4814 48.3298 37.6114 48.3498 37.1114 50.6098Z" fill="white"/>
<path d="M52.8288 50.9986C55.3388 49.3886 54.7188 46.5686 54.7188 44.9986C54.7188 43.4286 43.9988 44.9986 44.6488 44.9986C45.2988 44.9986 45.2788 45.5286 45.2788 45.7986C45.035 48.49 44.614 51.1625 44.0188 53.7986C43.5188 55.4086 43.8088 56.3486 44.0188 56.6186L49.0188 56.2186L48.3888 55.8186V51.8186L50.2688 55.8186L54.6788 55.4086V52.9986H53.4588C53.3904 52.2953 53.1758 51.614 52.8288 50.9986ZM50.3088 49.3986C50.1201 49.5123 49.904 49.5725 49.6838 49.5725C49.4635 49.5725 49.2474 49.5123 49.0588 49.3986V46.9986C49.2474 46.8848 49.4635 46.8246 49.6838 46.8246C49.904 46.8246 50.1201 46.8848 50.3088 46.9986C50.8188 47.3086 50.5188 48.7286 50.3088 49.3986Z" fill="white"/>
<path d="M78.6119 53C78.1119 53 77.9919 52.19 77.9919 51.79L76.1019 41.75L70.4419 42.15V42.55C71.9519 43.55 68.5519 50.74 66.6719 54.23L71.0719 53.82C70.0719 53.18 70.6519 51.95 71.0719 51.41H73.5819C73.5819 52.7 74.0019 53.29 74.2119 53.41C75.8919 53.29 79.1219 53 78.6119 53ZM71.7019 49.4L72.3319 47.4L72.9519 49.4H71.7019Z" fill="white"/>
<defs>
<linearGradient id="paint0_linear" x1="50.3183" y1="15.9811" x2="50.3183" y2="80.0011" gradientUnits="userSpaceOnUse">
<stop stop-color="#FFF56D"/>
<stop offset="1" stop-color="#FECC5F"/>
</linearGradient>
<linearGradient id="paint1_linear" x1="276.796" y1="127.511" x2="276.796" y2="24.4387" gradientUnits="userSpaceOnUse">
<stop stop-color="#FFF56D"/>
<stop offset="1" stop-color="#FECC5F"/>
</linearGradient>
<linearGradient id="paint2_linear" x1="2754.23" y1="171.929" x2="2754.23" y2="-265.328" gradientUnits="userSpaceOnUse">
<stop stop-color="#FFF56D"/>
<stop offset="1" stop-color="#FECC5F"/>
</linearGradient>
<linearGradient id="paint3_linear" x1="4994.4" y1="3065.78" x2="4994.4" y2="1441.17" gradientUnits="userSpaceOnUse">
<stop stop-color="#FFF56D"/>
<stop offset="1" stop-color="#FECC5F"/>
</linearGradient>
</defs>
</svg>
