<svg width="157" height="110" viewBox="0 0 157 110" fill="none" xmlns="http://www.w3.org/2000/svg">
<path d="M152.778 17.448C151.884 14.1427 150.139 11.1295 147.718 8.70827C145.297 6.28705 142.283 4.54238 138.978 3.64799C126.878 0.347992 78.1782 0.347992 78.1782 0.347992C78.1782 0.347992 29.4782 0.447992 17.3782 3.74799C14.0729 4.64238 11.0597 6.38705 8.63845 8.80827C6.21724 11.2295 4.47257 14.2427 3.57818 17.548C-0.0818205 39.048 -1.50182 71.808 3.67818 92.448C4.57257 95.7532 6.31724 98.7665 8.73845 101.188C11.1597 103.609 14.1729 105.354 17.4782 106.248C29.5782 109.548 78.2782 109.548 78.2782 109.548C78.2782 109.548 126.978 109.548 139.078 106.248C142.383 105.354 145.397 103.609 147.818 101.188C150.239 98.7665 151.984 95.7532 152.878 92.448C156.738 70.918 157.928 38.178 152.778 17.448Z" fill="#FF0000"/>
<path d="M62.6787 78.348L103.079 54.948L62.6787 31.548V78.348Z" fill="white"/>
</svg>
