<svg width="24" height="24" viewBox="0 0 24 24" fill="none" xmlns="http://www.w3.org/2000/svg">
<rect width="24" height="24" rx="4" fill="#ffd600"/>
<rect width="24" height="24" rx="4" stroke="#ffd600"/>
<path d="M8.71996 11.9998C8.5323 11.8311 8.28778 11.7395 8.03543 11.7435C7.78308 11.7475 7.54158 11.8468 7.35936 12.0214C7.17715 12.196 7.0677 12.4331 7.05297 12.685C7.03825 12.937 7.11933 13.1852 7.27996 13.3798L9.49996 15.7098C9.5929 15.8073 9.70459 15.885 9.82832 15.9383C9.95204 15.9916 10.0853 16.0193 10.22 16.0198C10.3539 16.0206 10.4867 15.9944 10.6104 15.9429C10.7341 15.8914 10.8462 15.8155 10.94 15.7198L17.72 8.71982C17.8119 8.62526 17.8843 8.51353 17.933 8.391C17.9818 8.26847 18.0059 8.13753 18.004 8.00567C18.0022 7.87382 17.9744 7.74361 17.9222 7.6225C17.87 7.50139 17.7945 7.39174 17.7 7.29982C17.6054 7.20789 17.4937 7.13549 17.3711 7.08674C17.2486 7.038 17.1177 7.01387 16.9858 7.01572C16.854 7.01758 16.7238 7.04539 16.6026 7.09757C16.4815 7.14974 16.3719 7.22526 16.28 7.31982L10.23 13.5798L8.71996 11.9998Z" fill="#212121"/>
</svg>
