<svg viewBox="0 0 485.74 512" xmlns="http://www.w3.org/2000/svg" xmlns:xlink="http://www.w3.org/1999/xlink">
<style>:root&gt;svg{display:none}:root&gt;svg:target{display:block}</style>
<svg fill="none" viewBox="0 0 180 180" id="process-1" xmlns="http://www.w3.org/2000/svg"><g filter="url(#asfilter0_d)"><circle cx="90" cy="90" transform="rotate(-90 90 90)" fill="#fff" r="75"/></g><g filter="url(#asfilter1_d)"><path d="M90 20a69.999 69.999 0 0160.218 34.31L90 90V20z" fill="#A8A2A2"/></g><g filter="url(#asfilter2_d)"><path d="M96.477 117H89.21V68.836l-14.57 5.352v-6.563l20.703-7.773h1.133V117z" fill="#2B2929"/></g><defs><filter id="asfilter0_d" x="0" y="0" width="180" height="180" filterUnits="userSpaceOnUse" color-interpolation-filters="sRGB"><feFlood flood-opacity="0" result="BackgroundImageFix"/><feColorMatrix in="SourceAlpha" values="0 0 0 0 0 0 0 0 0 0 0 0 0 0 0 0 0 0 127 0"/><feOffset/><feGaussianBlur stdDeviation="7.5"/><feColorMatrix values="0 0 0 0 0 0 0 0 0 0 0 0 0 0 0 0 0 0 0.3 0"/><feBlend in2="BackgroundImageFix" result="effect1_dropShadow"/><feBlend in="SourceGraphic" in2="effect1_dropShadow" result="shape"/></filter><filter id="asfilter1_d" x="86" y="20" width="68.218" height="78" filterUnits="userSpaceOnUse" color-interpolation-filters="sRGB"><feFlood flood-opacity="0" result="BackgroundImageFix"/><feColorMatrix in="SourceAlpha" values="0 0 0 0 0 0 0 0 0 0 0 0 0 0 0 0 0 0 127 0"/><feOffset dy="4"/><feGaussianBlur stdDeviation="2"/><feColorMatrix values="0 0 0 0 0 0 0 0 0 0 0 0 0 0 0 0 0 0 0.25 0"/><feBlend in2="BackgroundImageFix" result="effect1_dropShadow"/><feBlend in="SourceGraphic" in2="effect1_dropShadow" result="shape"/></filter><filter id="asfilter2_d" x="59.641" y="44.852" width="51.836" height="87.148" filterUnits="userSpaceOnUse" color-interpolation-filters="sRGB"><feFlood flood-opacity="0" result="BackgroundImageFix"/><feColorMatrix in="SourceAlpha" values="0 0 0 0 0 0 0 0 0 0 0 0 0 0 0 0 0 0 127 0"/><feOffset/><feGaussianBlur stdDeviation="7.5"/><feColorMatrix values="0 0 0 0 0 0 0 0 0 0 0 0 0 0 0 0 0 0 0.3 0"/><feBlend in2="BackgroundImageFix" result="effect1_dropShadow"/><feBlend in="SourceGraphic" in2="effect1_dropShadow" result="shape"/></filter></defs></svg><svg fill="none" viewBox="0 0 180 181" id="process-2" xmlns="http://www.w3.org/2000/svg"><g opacity=".95" filter="url(#atfilter0_d)"><circle cx="90" cy="90.996" r="75" transform="rotate(-90 90 90.996)" fill="#fff"/></g><g filter="url(#atfilter1_d)"><path d="M90 20.996a70 70 0 0161.249 103.891L90 90.997v-70z" fill="#A8A2A2"/></g><g filter="url(#atfilter2_d)"><path d="M108.992 118.996H71.727v-5.195l19.687-21.875c2.917-3.308 4.922-5.99 6.016-8.047 1.12-2.083 1.68-4.232 1.68-6.445 0-2.97-.9-5.404-2.696-7.305-1.797-1.901-4.193-2.852-7.187-2.852-3.594 0-6.394 1.029-8.399 3.086-1.979 2.031-2.969 4.87-2.969 8.516h-7.226c0-5.235 1.68-9.466 5.039-12.695 3.385-3.23 7.904-4.844 13.555-4.844 5.286 0 9.466 1.393 12.539 4.18 3.073 2.76 4.609 6.445 4.609 11.054 0 5.6-3.568 12.266-10.703 20l-15.234 16.524h28.554v5.898z" fill="#2B2929"/></g><defs><filter id="atfilter0_d" x="0" y=".996" width="180" height="180" filterUnits="userSpaceOnUse" color-interpolation-filters="sRGB"><feFlood flood-opacity="0" result="BackgroundImageFix"/><feColorMatrix in="SourceAlpha" values="0 0 0 0 0 0 0 0 0 0 0 0 0 0 0 0 0 0 127 0"/><feOffset/><feGaussianBlur stdDeviation="7.5"/><feColorMatrix values="0 0 0 0 0 0 0 0 0 0 0 0 0 0 0 0 0 0 0.3 0"/><feBlend in2="BackgroundImageFix" result="effect1_dropShadow"/><feBlend in="SourceGraphic" in2="effect1_dropShadow" result="shape"/></filter><filter id="atfilter1_d" x="75" y="5.996" width="100" height="133.891" filterUnits="userSpaceOnUse" color-interpolation-filters="sRGB"><feFlood flood-opacity="0" result="BackgroundImageFix"/><feColorMatrix in="SourceAlpha" values="0 0 0 0 0 0 0 0 0 0 0 0 0 0 0 0 0 0 127 0"/><feOffset/><feGaussianBlur stdDeviation="7.5"/><feColorMatrix values="0 0 0 0 0 0 0 0 0 0 0 0 0 0 0 0 0 0 0.3 0"/><feBlend in2="BackgroundImageFix" result="effect1_dropShadow"/><feBlend in="SourceGraphic" in2="effect1_dropShadow" result="shape"/></filter><filter id="atfilter2_d" x="66.633" y="61.34" width="46.359" height="65.656" filterUnits="userSpaceOnUse" color-interpolation-filters="sRGB"><feFlood flood-opacity="0" result="BackgroundImageFix"/><feColorMatrix in="SourceAlpha" values="0 0 0 0 0 0 0 0 0 0 0 0 0 0 0 0 0 0 127 0"/><feOffset dy="4"/><feGaussianBlur stdDeviation="2"/><feColorMatrix values="0 0 0 0 0 0 0 0 0 0 0 0 0 0 0 0 0 0 0.25 0"/><feBlend in2="BackgroundImageFix" result="effect1_dropShadow"/><feBlend in="SourceGraphic" in2="effect1_dropShadow" result="shape"/></filter></defs></svg><svg fill="none" viewBox="0 0 180 181" id="process-3" xmlns="http://www.w3.org/2000/svg"><g opacity=".95" filter="url(#aufilter0_d)"><circle cx="90" cy="90.996" r="75" transform="rotate(-90 90 90.996)" fill="#fff"/></g><g filter="url(#aufilter1_d)"><path d="M90 20.996a70.002 70.002 0 0170 70 70 70 0 01-70 70v-140z" fill="#A8A2A2"/></g><g filter="url(#aufilter2_d)"><path d="M82.234 86.043h5.43c3.412-.052 6.094-.95 8.047-2.695 1.953-1.745 2.93-4.102 2.93-7.07 0-6.667-3.32-10-9.961-10-3.125 0-5.625.898-7.5 2.695-1.85 1.77-2.774 4.127-2.774 7.07H71.18c0-4.505 1.64-8.242 4.922-11.211 3.307-2.995 7.5-4.492 12.578-4.492 5.364 0 9.57 1.42 12.617 4.258 3.047 2.838 4.57 6.784 4.57 11.836 0 2.474-.807 4.87-2.422 7.187-1.588 2.318-3.763 4.05-6.523 5.195 3.125.99 5.534 2.63 7.226 4.922 1.719 2.292 2.579 5.091 2.579 8.399 0 5.104-1.667 9.153-5 12.148-3.334 2.995-7.67 4.492-13.008 4.492-5.339 0-9.688-1.445-13.047-4.336-3.334-2.89-5-6.705-5-11.445h7.266c0 2.995.976 5.391 2.93 7.188 1.952 1.796 4.57 2.695 7.85 2.695 3.49 0 6.16-.912 8.009-2.734 1.849-1.823 2.773-4.441 2.773-7.852 0-3.307-1.016-5.846-3.047-7.617s-4.96-2.683-8.789-2.735h-5.43v-5.898z" fill="#2B2929"/></g><defs><filter id="aufilter0_d" x="0" y=".996" width="180" height="180" filterUnits="userSpaceOnUse" color-interpolation-filters="sRGB"><feFlood flood-opacity="0" result="BackgroundImageFix"/><feColorMatrix in="SourceAlpha" values="0 0 0 0 0 0 0 0 0 0 0 0 0 0 0 0 0 0 127 0"/><feOffset/><feGaussianBlur stdDeviation="7.5"/><feColorMatrix values="0 0 0 0 0 0 0 0 0 0 0 0 0 0 0 0 0 0 0.3 0"/><feBlend in2="BackgroundImageFix" result="effect1_dropShadow"/><feBlend in="SourceGraphic" in2="effect1_dropShadow" result="shape"/></filter><filter id="aufilter1_d" x="75" y="5.996" width="100" height="170" filterUnits="userSpaceOnUse" color-interpolation-filters="sRGB"><feFlood flood-opacity="0" result="BackgroundImageFix"/><feColorMatrix in="SourceAlpha" values="0 0 0 0 0 0 0 0 0 0 0 0 0 0 0 0 0 0 127 0"/><feOffset/><feGaussianBlur stdDeviation="7.5"/><feColorMatrix values="0 0 0 0 0 0 0 0 0 0 0 0 0 0 0 0 0 0 0.3 0"/><feBlend in2="BackgroundImageFix" result="effect1_dropShadow"/><feBlend in="SourceGraphic" in2="effect1_dropShadow" result="shape"/></filter><filter id="aufilter2_d" x="55.672" y="45.34" width="66.055" height="88.438" filterUnits="userSpaceOnUse" color-interpolation-filters="sRGB"><feFlood flood-opacity="0" result="BackgroundImageFix"/><feColorMatrix in="SourceAlpha" values="0 0 0 0 0 0 0 0 0 0 0 0 0 0 0 0 0 0 127 0"/><feOffset/><feGaussianBlur stdDeviation="7.5"/><feColorMatrix values="0 0 0 0 0 0 0 0 0 0 0 0 0 0 0 0 0 0 0.3 0"/><feBlend in2="BackgroundImageFix" result="effect1_dropShadow"/><feBlend in="SourceGraphic" in2="effect1_dropShadow" result="shape"/></filter></defs></svg><svg fill="none" viewBox="0 0 180 181" id="process-4" xmlns="http://www.w3.org/2000/svg"><g opacity=".95" filter="url(#avfilter0_d)"><circle cx="90" cy="90.602" r="75" transform="rotate(-90 90 90.602)" fill="#fff"/></g><g filter="url(#avfilter1_d)"><path d="M90 20.602a69.997 69.997 0 0160.622 35A70 70 0 1129.377 125.6L90 90.602v-70z" fill="#A8A2A2"/></g><path d="M102.234 98.5h7.891v5.898h-7.891v13.204h-7.265v-13.204H69.07v-4.257l25.47-39.414h7.694V98.5zm-24.96 0h17.695V70.61l-.86 1.562L77.273 98.5z" fill="#000"/><defs><filter id="avfilter0_d" x="0" y=".602" width="180" height="180" filterUnits="userSpaceOnUse" color-interpolation-filters="sRGB"><feFlood flood-opacity="0" result="BackgroundImageFix"/><feColorMatrix in="SourceAlpha" values="0 0 0 0 0 0 0 0 0 0 0 0 0 0 0 0 0 0 127 0"/><feOffset/><feGaussianBlur stdDeviation="7.5"/><feColorMatrix values="0 0 0 0 0 0 0 0 0 0 0 0 0 0 0 0 0 0 0.3 0"/><feBlend in2="BackgroundImageFix" result="effect1_dropShadow"/><feBlend in="SourceGraphic" in2="effect1_dropShadow" result="shape"/></filter><filter id="avfilter1_d" x="14.375" y="5.602" width="160.623" height="170" filterUnits="userSpaceOnUse" color-interpolation-filters="sRGB"><feFlood flood-opacity="0" result="BackgroundImageFix"/><feColorMatrix in="SourceAlpha" values="0 0 0 0 0 0 0 0 0 0 0 0 0 0 0 0 0 0 127 0"/><feOffset/><feGaussianBlur stdDeviation="7.5"/><feColorMatrix values="0 0 0 0 0 0 0 0 0 0 0 0 0 0 0 0 0 0 0.3 0"/><feBlend in2="BackgroundImageFix" result="effect1_dropShadow"/><feBlend in="SourceGraphic" in2="effect1_dropShadow" result="shape"/></filter></defs></svg><svg fill="none" viewBox="0 0 180 181" id="process-5" xmlns="http://www.w3.org/2000/svg"><g opacity=".95" filter="url(#awfilter0_d)"><circle cx="90" cy="90.602" r="75" transform="rotate(-90 90 90.602)" fill="#fff"/></g><g filter="url(#awfilter1_d)"><path d="M90 20.602a70 70 0 11-60.505 34.797L90 90.603v-70z" fill="#A8A2A2"/></g><path d="M75.047 89.086l2.89-28.36h29.141v6.68H84.07l-1.718 15.508c2.786-1.64 5.95-2.46 9.492-2.46 5.182 0 9.297 1.718 12.344 5.155 3.046 3.412 4.57 8.034 4.57 13.868 0 5.859-1.589 10.481-4.766 13.867-3.151 3.359-7.565 5.039-13.242 5.039-5.026 0-9.128-1.393-12.305-4.18-3.177-2.786-4.987-6.641-5.43-11.562h6.837c.442 3.255 1.601 5.716 3.476 7.382 1.875 1.641 4.35 2.461 7.422 2.461 3.36 0 5.99-1.145 7.89-3.437 1.928-2.292 2.891-5.456 2.891-9.492 0-3.802-1.041-6.85-3.125-9.14-2.057-2.319-4.804-3.478-8.242-3.478-3.151 0-5.625.69-7.422 2.07l-1.914 1.563-5.781-1.484z" fill="#000"/><defs><filter id="awfilter0_d" x="0" y=".602" width="180" height="180" filterUnits="userSpaceOnUse" color-interpolation-filters="sRGB"><feFlood flood-opacity="0" result="BackgroundImageFix"/><feColorMatrix in="SourceAlpha" values="0 0 0 0 0 0 0 0 0 0 0 0 0 0 0 0 0 0 127 0"/><feOffset/><feGaussianBlur stdDeviation="7.5"/><feColorMatrix values="0 0 0 0 0 0 0 0 0 0 0 0 0 0 0 0 0 0 0.3 0"/><feBlend in2="BackgroundImageFix" result="effect1_dropShadow"/><feBlend in="SourceGraphic" in2="effect1_dropShadow" result="shape"/></filter><filter id="awfilter1_d" x="5" y="5.602" width="170" height="170" filterUnits="userSpaceOnUse" color-interpolation-filters="sRGB"><feFlood flood-opacity="0" result="BackgroundImageFix"/><feColorMatrix in="SourceAlpha" values="0 0 0 0 0 0 0 0 0 0 0 0 0 0 0 0 0 0 127 0"/><feOffset/><feGaussianBlur stdDeviation="7.5"/><feColorMatrix values="0 0 0 0 0 0 0 0 0 0 0 0 0 0 0 0 0 0 0.3 0"/><feBlend in2="BackgroundImageFix" result="effect1_dropShadow"/><feBlend in="SourceGraphic" in2="effect1_dropShadow" result="shape"/></filter></defs></svg><svg fill="none" viewBox="0 0 180 181" id="process-6" xmlns="http://www.w3.org/2000/svg"><g filter="url(#axfilter0_d)"><circle cx="90" cy="90.602" r="75" transform="rotate(-90 90 90.602)" fill="#fff"/></g><g filter="url(#axfilter1_d)"><circle cx="90" cy="90.602" r="70" transform="rotate(-90 90 90.602)" fill="url(#axpaint0_linear)"/></g><path d="M100.086 60.688v6.132h-1.328c-5.625.105-10.104 1.771-13.438 5-3.333 3.23-5.26 7.774-5.78 13.633 2.994-3.437 7.082-5.156 12.265-5.156 4.948 0 8.893 1.745 11.836 5.234 2.968 3.49 4.453 7.995 4.453 13.516 0 5.859-1.602 10.547-4.805 14.062-3.177 3.516-7.448 5.274-12.812 5.274-5.443 0-9.857-2.084-13.243-6.25-3.385-4.193-5.078-9.584-5.078-16.172v-2.773c0-10.47 2.227-18.464 6.68-23.985 4.48-5.547 11.133-8.385 19.96-8.516h1.29zm-9.492 25.624c-2.474 0-4.753.743-6.836 2.227-2.084 1.484-3.529 3.346-4.336 5.586v2.656c0 4.688 1.055 8.464 3.164 11.328 2.11 2.865 4.74 4.297 7.89 4.297 3.256 0 5.808-1.198 7.657-3.594 1.875-2.395 2.812-5.533 2.812-9.414 0-3.906-.95-7.057-2.851-9.453-1.875-2.422-4.375-3.632-7.5-3.632z" fill="#000"/><defs><filter id="axfilter0_d" x="0" y=".602" width="180" height="180" filterUnits="userSpaceOnUse" color-interpolation-filters="sRGB"><feFlood flood-opacity="0" result="BackgroundImageFix"/><feColorMatrix in="SourceAlpha" values="0 0 0 0 0 0 0 0 0 0 0 0 0 0 0 0 0 0 127 0"/><feOffset/><feGaussianBlur stdDeviation="7.5"/><feColorMatrix values="0 0 0 0 0 0 0 0 0 0 0 0 0 0 0 0 0 0 0.3 0"/><feBlend in2="BackgroundImageFix" result="effect1_dropShadow"/><feBlend in="SourceGraphic" in2="effect1_dropShadow" result="shape"/></filter><filter id="axfilter1_d" x="5" y="5.602" width="170" height="170" filterUnits="userSpaceOnUse" color-interpolation-filters="sRGB"><feFlood flood-opacity="0" result="BackgroundImageFix"/><feColorMatrix in="SourceAlpha" values="0 0 0 0 0 0 0 0 0 0 0 0 0 0 0 0 0 0 127 0"/><feOffset/><feGaussianBlur stdDeviation="7.5"/><feColorMatrix values="0 0 0 0 0 0 0 0 0 0 0 0 0 0 0 0 0 0 0.3 0"/><feBlend in2="BackgroundImageFix" result="effect1_dropShadow"/><feBlend in="SourceGraphic" in2="effect1_dropShadow" result="shape"/></filter><linearGradient id="axpaint0_linear" x1="90" y1="20.602" x2="90" y2="160.602" gradientUnits="userSpaceOnUse"><stop stop-color="#FFF56D"/><stop offset="1" stop-color="#FECC5F"/></linearGradient></defs></svg>
</svg>