<?xml version="1.0" encoding="UTF-8"?>
<svg xmlns="http://www.w3.org/2000/svg" width="656" height="81" viewBox="0 0 656 81" fill="none">
  <path fill-rule="evenodd" clip-rule="evenodd" d="M640.182 75.0156C640.229 75.711 641.155 76.1786 641.471 76.3706C641.636 76.4702 641.801 76.5713 641.964 76.6821C642.51 77.0612 643.043 77.4699 643.579 77.8921C643.94 78.1773 644.306 78.4704 644.685 78.6895C645.473 79.1475 646.298 79.2017 647.124 79.2041C647.565 79.2041 648.007 79.2153 648.447 79.22C648.901 79.2224 649.356 79.2176 649.81 79.1706C650.139 79.1388 650.516 79.0846 650.839 78.9285L648.793 77.4388C648.174 76.9441 647.549 76.4447 646.914 76.0113C646.447 75.6951 645.974 75.4194 645.484 75.2394C644.812 74.9909 644.134 74.9295 643.448 74.9184C642.364 74.8985 641.268 74.9702 640.182 75.0156V75.0156ZM628.656 75.1191C628.789 75.625 629.595 76.1109 629.872 76.2846C630.162 76.4678 630.458 76.6366 630.742 76.8382C631.463 77.348 632.169 77.8857 632.883 78.4187C633.227 78.676 633.59 78.9516 633.956 79.087C634.261 79.1977 634.574 79.2153 634.884 79.2224C635.446 79.2312 636.011 79.2113 636.576 79.2089C637.637 79.2065 638.701 79.2384 639.764 79.22C639.855 79.22 640.778 79.2312 640.801 79.0241C640.819 78.8656 640.345 78.5087 640.281 78.4617C639.762 78.053 639.222 77.685 638.694 77.301C638.027 76.8175 637.366 76.3093 636.695 75.8401C636.32 75.5756 635.938 75.3247 635.541 75.1868C635.2 75.0721 634.855 75.0403 634.509 75.0291C633.949 75.0108 633.384 75.0267 632.823 75.0291C632.174 75.0315 631.526 75.0156 630.88 75.0132C630.144 75.0108 629.387 75.0108 628.656 75.1191" fill="white"></path>
  <path fill-rule="evenodd" clip-rule="evenodd" d="M4.97427 80.5911C6.0992 80.6221 7.23289 80.6994 8.35542 80.6787C9.01667 80.6676 9.68112 80.6134 10.3225 80.3179C10.7216 80.1322 11.0992 79.8614 11.4673 79.5475C11.9095 79.1707 14.6716 77.1115 14.7823 76.5467C14.4597 76.436 14.1067 76.4002 13.7777 76.377C13.3571 76.346 12.9348 76.346 12.5149 76.35C12.0027 76.3571 11.4896 76.377 10.9773 76.377C10.3695 76.377 9.63332 76.3683 9.06448 76.7857C8.82707 76.9626 8.59682 77.188 8.35941 77.3776L5.94544 79.3261C5.74228 79.5117 5.5431 79.663 5.33357 79.8184C5.23877 79.8885 5.10732 79.9833 5.04199 80.1283C4.98543 80.2565 4.97666 80.4326 4.97427 80.5911ZM12.4743 80.5592C14.0119 80.6317 15.5479 80.5704 17.0856 80.5704C17.5803 80.5704 18.0774 80.5911 18.5738 80.5863C18.8319 80.5815 19.1004 80.5728 19.3529 80.4644C19.6764 80.3242 20.0102 80.008 20.3066 79.7467C20.8778 79.2361 21.4873 78.7868 22.0697 78.3104C22.413 78.03 23.7905 76.9283 24.0032 76.389C22.5126 76.2918 21.0156 76.3619 19.5226 76.3571C18.996 76.3548 18.4702 76.3301 17.9444 76.3277C17.6552 76.3277 17.3572 76.3364 17.0744 76.4472C16.7677 76.5666 16.4785 76.8064 16.2004 77.0454C15.9479 77.2629 15.6858 77.4588 15.4308 77.6596C15.0715 77.9376 14.7146 78.218 14.3577 78.5088C14.0733 78.7414 12.5309 79.9745 12.4743 80.5592" fill="white"></path>
  <path fill-rule="evenodd" clip-rule="evenodd" d="M630.307 80.0286C629.939 79.4208 629.076 79.0145 628.597 78.7572C628.41 78.6577 628.222 78.5565 628.037 78.4458C627.244 77.9734 626.461 77.4747 625.673 76.9824C625.232 76.7044 624.78 76.4248 624.32 76.2575C623.699 76.0321 623.042 76.0185 622.409 76.0137C621.038 76.0026 619.663 76.0472 618.29 76.052C549.056 76.2623 124.797 76.4989 55.5626 76.718C53.0316 76.7251 50.4973 76.757 47.9638 76.7953C43.1128 76.8693 38.2593 76.9577 33.4083 77.1067C32.8259 77.125 32.2029 77.3441 31.638 77.5783C30.9354 77.8746 30.2399 78.2451 29.5539 78.6402C28.8058 79.0664 28.0633 79.53 27.3224 79.9944C26.7735 80.3378 26.2206 80.697 25.6629 80.9997C40.757 80.9503 55.8495 80.9408 70.942 80.9137C97.0598 80.8683 329.174 80.8189 355.291 80.7583C383.958 80.6882 412.623 80.6133 441.289 80.4668C450.83 80.4174 609.406 80.3672 618.947 80.266C621.682 80.2365 624.419 80.2071 627.154 80.1505C627.908 80.1346 628.663 80.117 629.415 80.0876C629.625 80.078 629.837 80.0692 630.047 80.0557C630.124 80.0485 630.228 80.0485 630.307 80.0286" fill="white"></path>
  <path d="M33.8078 34.1125L29.8013 43.3077L35.0116 43.7347L33.8078 34.1125ZM24.2507 7.23913C33.6477 7.30684 43.0446 7.37693 52.4392 7.44464C55.4427 8.97332 56.339 12.2593 56.0163 16.561C57.0258 29.9216 58.0375 43.283 59.0493 56.6437C59.2597 58.5292 59.4692 60.4124 59.6795 62.2955C59.7289 63.9103 61.0522 64.816 63.3491 65.1792C63.3037 65.8882 63.2614 66.5996 63.2184 67.3086C54.8309 67.248 46.4433 67.1851 38.0558 67.1238C35.104 66.8011 34.8539 61.4201 35.0634 55.1811C31.5787 55.0178 27.9091 55.2305 24.4244 55.068C23.2955 57.3781 22.349 59.3131 21.2201 61.6232C20.0681 64.1269 20.6369 65.0239 23.1712 65.5457C23.164 66.1957 23.1577 66.8482 23.1529 67.499C16.2448 67.4623 9.33907 67.4241 2.43097 67.3858C-1.27284 66.8959 -0.482525 63.4156 3.03566 58.1301C9.83142 44.9583 16.6264 31.7873 23.4222 18.6154C25.3908 15.1542 28.8962 10.5132 24.0268 9.33499C24.1017 8.63716 24.1758 7.93695 24.2507 7.23913" fill="white"></path>
  <path d="M72.1038 65.1952L114.748 65.0056L114.344 69.9262L71.668 69.9732L72.1038 65.1952Z" fill="white"></path>
  <path d="M348.332 31.9905L344.328 41.1849L349.536 41.6119L348.332 31.9905ZM338.774 5.11473C348.171 5.18483 357.568 5.25254 366.965 5.32264C369.967 6.85132 370.863 10.1341 370.54 14.4382C371.552 27.7996 372.562 41.1602 373.573 54.5217C373.783 56.4048 373.993 58.2904 374.203 60.1735C374.253 61.7883 375.576 62.6932 377.873 63.0572C377.83 63.7662 377.785 64.4752 377.742 65.1866C369.354 65.1252 360.967 65.0623 352.58 65.001C349.628 64.6783 349.38 59.2949 349.588 53.0583C346.103 52.8958 342.435 53.1053 338.949 52.9452C337.819 55.2553 336.873 57.1903 335.746 59.5004C334.592 62.0049 335.161 62.9011 337.695 63.4205C337.688 64.0729 337.683 64.7261 337.677 65.3762C330.77 65.3379 323.862 65.3013 316.957 65.2631C313.25 64.7708 314.043 61.2936 317.562 56.0073C324.355 42.8363 331.15 29.6644 337.945 16.491C339.915 13.0314 343.422 8.39117 338.553 7.2122C338.627 6.51437 338.702 5.81494 338.774 5.11473" fill="white"></path>
  <path d="M398.458 5.05338C407.108 5.15535 415.629 5.25652 424.281 5.36088C425.245 5.70182 425.814 6.32715 426.026 7.21217C426.11 14.2844 426.511 21.3933 426.494 28.4974C426.938 28.6097 426.995 28.5109 427.3 28.5038C429.793 22.4161 432.205 16.5404 434.698 10.4551C435.304 7.44718 435.039 7.81997 432.824 6.76049C432.959 6.0762 432.932 5.55046 433.067 4.86379C440.99 4.83193 449.106 4.56345 457.031 4.53159C460.333 4.85899 461.245 7.47426 461.218 12.1121C461.647 18.927 461.909 25.7356 462.335 32.5505C462.916 41.7991 463.496 51.0484 464.077 60.2978C464.786 61.6839 466.031 62.5219 467.943 62.6621C467.893 63.4276 467.844 64.1908 467.796 64.9539C459.472 64.7277 451.493 64.9452 443.171 64.7189C439.253 64.6735 439.693 59.1395 440.385 53.8557C440.261 48.7789 440.136 43.7053 440.012 38.631C436.688 47.3522 433.364 56.0726 430.039 64.7938C423.083 64.7667 416.13 64.7397 409.175 64.7126C408.919 56.1156 408.664 47.5195 408.411 38.9225C405.78 45.2587 403.152 51.5949 400.523 57.9311C400.112 59.2025 399.827 60.4874 400.026 61.8177C400.771 62.5577 401.769 63.0931 402.962 63.4746C402.89 64.0593 402.815 64.6465 402.741 65.2335C396.038 65.0217 389.335 64.8113 382.632 64.5994C379.344 64.5023 379.509 61.5397 381.828 56.7864C387.989 42.0771 394.152 27.3654 400.313 12.6562C401.467 10.1118 400.88 8.423 399.303 7.22093C398.947 7.12852 398.59 7.03372 398.233 6.93893C398.265 6.31121 398.427 5.68111 398.458 5.05338Z" fill="white"></path>
  <path d="M269.963 5.69065C285.518 5.7241 301.071 5.75597 316.624 5.78704C315.928 8.48115 315.486 11.2247 314.791 13.9188C314.445 15.8744 313.679 17.7257 312.048 18.6092C307.681 20.9775 299.536 19.6655 295.003 19.5117C294.461 22.4615 293.733 24.9294 293.192 27.8784C297.898 27.8984 302.607 27.9191 307.313 27.939C307.078 29.4135 306.844 30.888 306.609 32.3625C306.021 36.5383 304.287 39.3902 300.043 39.3471C294.497 39.0309 289.565 38.6923 288.856 45.4037C288.519 47.5442 287.889 49.6552 287.55 51.7941C292.304 51.8976 297.058 51.9996 301.814 52.1007C304.099 51.7303 305.771 50.8748 306.599 49.3636C307.134 49.3867 307.667 49.409 308.203 49.4321C307.336 53.1483 306.466 56.8676 305.599 60.5846C305.001 64.9181 302.55 66.2819 296.968 65.6382C286.538 65.6358 276.123 65.8931 265.695 65.8908C262.603 66.3424 260.915 65.8055 260.354 64.2537C259.757 62.6119 260.405 59.8437 261.474 56.224C265.021 41.2215 268.571 26.2183 272.122 11.2183C272.395 9.68243 271.968 8.51063 270.338 7.96416C270.012 7.9076 269.687 7.85343 269.362 7.79687C269.425 7.11976 269.488 6.44425 269.554 5.76714C269.689 5.74244 269.827 5.71773 269.963 5.69065" fill="white"></path>
  <path d="M205.607 6.39002C217.766 6.3 229.924 6.20996 242.083 6.12154C253.332 6.72218 255.315 12.496 255.401 19.3292C254.825 21.6147 254.743 24.1367 254.165 26.4214C252.431 33.2953 249.559 40.0178 241.704 41.3904C241.634 41.8197 241.742 41.7544 241.672 42.1806C242.74 44.6086 243.682 47.2119 244.751 49.6392C245.389 50.4772 246.121 51.0778 246.954 51.735C248.366 51.8115 249.8 52.0218 251.212 52.1007C250.683 55.2775 250.157 58.4552 249.631 61.632C249.303 62.5688 248.906 63.477 248.307 64.2943C247.189 65.0917 245.836 65.6246 244.296 65.9425C239.897 65.9249 235.498 65.9042 231.097 65.8843C228.99 66.0285 227.246 65.392 225.914 63.8745C224.071 57.3081 222.228 50.7433 220.385 44.1769C219.663 46.961 218.943 49.7475 218.219 52.5316C217.536 56.0184 216.849 59.5075 216.162 62.9934C216.806 63.802 217.908 64.1947 219.182 64.4369C219.049 65.0821 218.917 65.7305 218.784 66.3766C210.32 66.2388 202.065 66.4348 193.599 66.2954C189.25 66.4101 192.481 57.8769 193.209 55.3389C194.184 51.943 194.681 48.1352 195.505 44.7034C198.242 33.2905 200.702 22.1046 203.285 10.6534C202.883 9.97631 202.481 9.3008 202.079 8.62369C201.575 8.47871 201.07 8.33689 200.564 8.19191C200.713 7.53949 200.859 6.8871 201.009 6.23468C202.542 6.28646 204.073 6.33824 205.607 6.39002V6.39002ZM225.581 21.1017C224.934 24.2363 224.285 27.3701 223.637 30.5048C225.18 30.5335 226.725 30.5629 228.267 30.5948C230.315 27.2483 232.399 22.7028 231.008 20.458C230.568 19.7514 229.025 19.4575 226.071 19.6136C225.909 20.1107 225.746 20.607 225.581 21.1017" fill="white"></path>
  <path d="M136.095 6.62017C148.335 6.66319 160.573 6.70623 172.813 6.74685C181.492 8.59179 185.164 13.9935 185.105 22.0432C184.414 30.7915 182.792 39.2068 180.154 47.2613C177.217 60.939 172.87 67.5977 158.026 66.6697C150.252 66.7446 142.955 66.6203 135.295 66.7486C119.541 67.0154 119.573 68.3569 122.353 56.5696C125.652 41.9328 129.078 27.0698 132.716 13.0384C133.331 10.7171 132.994 9.36447 130.363 8.8897C130.365 8.12894 130.368 7.3682 130.37 6.60665C132.278 6.61143 134.186 6.61619 136.095 6.62017V6.62017ZM154.83 24.0985C153.649 28.7291 152.583 33.8465 151.375 38.9201C150.286 43.4862 149.021 48.0093 148.48 52.2496C150.042 52.3962 151.627 52.3269 153.242 51.9811C154.437 51.3694 155.218 49.1835 155.896 47.4939C157.332 41.6906 157.768 39.5143 159.204 33.7111C159.579 31.2336 160.864 25.9569 161.239 23.4795C161.102 19.9904 158.181 20.591 155.571 20.5257C155.299 21.8966 155.101 22.7275 154.83 24.0985" fill="white"></path>
  <path fill-rule="evenodd" clip-rule="evenodd" d="M654.703 33.1143L645.961 32.297L645.384 33.5596L654.703 33.1143ZM482.926 25.5227L515.734 25.6063L515.163 24.3397L482.926 25.5227ZM655.013 31.1905L645.887 30.186L645.76 31.396L655.013 31.1905ZM486.218 23.4316L515.369 23.4387L515.249 22.2303L486.218 23.4316ZM654.589 28.8516L645.609 27.8758L645.876 29.2914L654.589 28.8516ZM488.556 20.9318L515.265 21.3365L515.213 19.9839L488.556 20.9318ZM654.714 26.5415L644.884 25.6134L645.729 27.0649L654.714 26.5415ZM489.265 18.6201L515.425 19.11L516.279 17.6626L489.265 18.6201ZM654.478 24.3102L643.166 23.5088L644.688 24.875L654.478 24.3102ZM492.842 16.4724L516.473 16.9241L516.125 15.5237L492.842 16.4724ZM653.17 22.4087L640.368 21.7946L642.931 22.8086L653.17 22.4087ZM495.035 14.4108L516.527 14.806L519.616 13.8644L495.035 14.4108ZM654.568 20.7016L633.285 19.7871L638.617 21.0816L654.568 20.7016ZM498.135 12.9451L522.568 13.1642L527.534 11.9087L498.135 12.9451ZM655.812 18.6902L631.463 18.1142L633.01 19.345L655.812 18.6902ZM654.064 17.0349L629.722 16.4589L631.255 17.6602L654.064 17.0349ZM651.806 15.111L627.45 14.5351L629.406 15.8105L651.806 15.111ZM648.091 12.6201L623.738 12.0441L626.398 13.3267L648.091 12.6201ZM594.595 24.0099L578.602 23.1974L579.526 24.3556L594.595 24.0099ZM594.995 22.0383L578.512 21.409L578.374 22.4836L594.995 22.0383ZM594.709 20.2093L579.015 19.6206L578.586 20.7064L594.709 20.2093ZM595.449 18.4528L576.475 17.7096L578.81 18.8344L595.449 18.4528ZM594.704 16.5856L572.294 15.9212L576.393 17.0054L594.704 16.5856ZM592.15 14.8872L566.412 14.3001L570.511 15.3843L592.15 14.8872ZM594.979 13.7608L551.62 12.8846L555.721 13.9679L594.979 13.7608ZM594.388 12.162L548.034 11.3423L551.046 12.2186L594.388 12.162ZM643.529 10.5831L619.2 10.0072L622.412 11.1862L643.529 10.5831ZM638.667 8.93499L614.369 8.36142L618.119 9.42011L638.667 8.93499ZM633.581 7.40152L608.351 6.7738L611.96 7.66359L633.581 7.40152ZM510.933 5.9812L600.391 6.67899L569.745 5.42354L510.933 5.9812ZM510.83 8.22839L594.36 8.38136L576.951 7.47163L510.83 8.22839ZM510.601 9.92596L594.395 10.6238L574.445 9.6551L510.601 9.92596ZM594.917 25.8325L509.048 26.7988L595.221 27.5237L594.917 25.8325ZM575.197 21.2887L577.04 20.6857C577.042 20.6857 577.044 20.6857 577.046 20.6857C577.046 20.6881 577.048 20.6881 577.048 20.6904L577.245 23.2467C577.275 23.6355 576.879 23.9645 576.572 24.1342C575.793 24.5635 574.63 24.6536 573.742 24.656L575.057 24.8248L578.717 24.554C578.153 23.947 577.808 23.1743 577.744 22.3522C577.681 21.5261 577.904 20.7064 578.374 20.0221L578.376 20.0197C578.435 19.9902 578.491 19.9456 578.509 19.8803C578.555 19.7106 578.302 19.4916 578.189 19.3992C577.889 19.1554 577.514 18.9403 577.173 18.7579C576.687 18.4958 576.183 18.2584 575.68 18.033C575.106 17.7773 574.524 17.5359 573.939 17.3081C573.024 16.9512 572.094 16.6166 571.154 16.3259C570.782 16.2104 570.406 16.102 570.027 16.012C569.775 15.9507 569.496 15.8877 569.237 15.867L569.302 16.7051C569.302 16.7074 569.302 16.7098 569.3 16.7098C569.298 16.7122 569.296 16.7122 569.293 16.7098C568.79 16.3099 568.2 15.9738 567.616 15.7045C566.863 15.3572 566.06 15.1039 565.24 14.9684C564.312 14.8147 563.37 14.8147 562.446 15.0003C561.377 15.2122 560.398 15.6599 559.52 16.294C559.517 16.2964 559.515 16.2964 559.512 16.294C559.512 16.294 559.51 16.2916 559.51 16.2892C559.49 16.0415 560.159 15.5221 560.366 15.3771C560.034 15.1333 558.941 15.0951 558.557 15.0927C557.862 15.084 557.161 15.1286 556.471 15.1923C555.45 15.2895 554.431 15.4361 553.422 15.6073C553.022 15.675 552.618 15.7292 552.214 15.777C551.696 15.8399 551.177 15.8925 550.657 15.9419C549.343 16.0638 548.022 16.1562 546.701 16.2374C543.406 16.4406 540.098 16.5649 536.798 16.635C534.754 16.678 532.709 16.6979 530.664 16.6867C528.846 16.6756 527.027 16.6437 525.208 16.5561C524.147 16.5043 519.822 16.3012 519.045 15.5898L516.753 15.7587C517.171 16.2151 517.426 16.7935 517.473 17.4092C517.521 18.0258 517.363 18.6448 517.008 19.157C516.748 19.5346 516.556 19.9592 516.417 20.3925C516.168 21.1644 516.053 22.0566 516.091 22.8676C516.105 23.1408 516.134 23.4547 516.218 23.7183C516.245 23.8068 516.324 24.0346 516.446 24.0306C516.699 23.1065 517.187 22.2622 517.857 21.5715C518.539 20.8689 519.386 20.3447 520.319 20.0428C520.694 19.7736 520.009 19.349 519.793 19.2367L517.943 19.3721C517.941 19.3745 517.939 19.3721 517.939 19.3697C517.939 19.3673 517.939 19.3649 517.939 19.3625L519.219 17.8522C519.219 17.8522 519.221 17.8522 519.224 17.8522L523.399 17.8251L525.206 17.1249C525.209 17.1249 525.212 17.1249 525.212 17.1272C525.215 17.132 525.212 17.1344 525.211 17.136C524.79 17.3822 523.014 18.4871 523.031 18.9905C523.876 18.5906 524.806 18.2927 525.721 18.0959C526.825 17.8593 527.977 17.755 529.106 17.845C531.841 18.0665 533.975 19.3832 535.31 21.7723C535.237 20.939 534.779 20.101 534.303 19.4302C533.971 18.961 533.591 18.5205 533.189 18.1095C532.871 17.7845 532.53 17.4682 532.173 17.1862C532.171 17.1838 532.171 17.1814 532.171 17.179C532.173 17.175 532.176 17.175 532.18 17.175L534.095 17.8904L557.796 18.1318C557.799 18.1318 557.8 18.1318 557.803 18.1341C557.803 18.1365 557.803 18.1389 557.803 18.1389C557.624 18.4417 556.622 20.23 557.047 20.465C558.273 18.6424 560.248 16.9377 562.394 16.3123C563.679 15.9371 564.975 15.9554 566.247 16.384C567.916 16.9512 569.316 18.1549 570.441 19.4709L570.833 18.593C570.833 18.5906 570.836 18.5882 570.838 18.5882C571.348 18.5524 571.872 18.5524 572.383 18.5747C573.033 18.6042 573.688 18.6719 574.327 18.7937C575.228 18.9634 576.256 19.2725 576.981 19.8485C576.983 19.8508 576.983 19.8548 576.983 19.8572C576.538 20.4945 575.915 20.9884 575.197 21.2887" fill="white"></path>
  <path d="M599.16 14.9571C600.798 15.7681 603.727 16.1831 606.419 15.7904C609.19 15.3881 608.659 15.1013 608.792 11.5453C608.819 10.8586 608.826 10.7981 608.243 10.4006C605.741 8.69347 606.453 9.5968 606.434 7.24364C606.421 5.35569 606.764 3.38649 606.667 1.51049C606.322 1.34559 605.762 1.21418 605.339 1.03574C601.909 -0.406911 602.207 -0.169531 602.185 0.694783C602.139 2.46085 602.015 4.21338 601.942 5.97865C601.798 9.53548 602.401 8.69745 599.948 10.1409C598.966 10.7184 599.255 11.2561 599.215 12.3379C599.185 13.1688 599.07 14.1422 599.16 14.9571" fill="#FEC601"></path>
  <path d="M539.031 15.5173C533.731 15.9196 525.551 15.4041 522.125 15.0951C528.954 11.4729 538.227 10.7711 540.874 10.572C542.981 10.4118 549.934 12.9116 553.15 14.1806L550.945 14.3478C550.39 14.0491 549.844 13.7807 549.304 13.5321L545.316 13.8779C545.189 12.9315 546 12.5523 546.54 12.4551C540.774 10.5767 536.195 11.4028 534.353 12.1978L535.007 14.9636C535.711 15.1421 537.985 15.4065 539.031 15.5173V15.5173ZM533.019 12.2926C531.271 12.7061 527.967 13.6389 528.708 14.0244C529.451 14.4132 532.289 14.6976 533.652 14.7836L533.019 12.2926Z" fill="#FEC601"></path>
  <path d="M552.819 24.1566L555.062 18.6106L551.848 22.8159L537.695 23.8881L552.819 24.1566Z" fill="#FEC601"></path>
  <path fill-rule="evenodd" clip-rule="evenodd" d="M488.886 59.0715L491.605 41.257C491.605 41.2523 491.605 41.2483 491.601 41.2459C491.598 41.2411 491.594 41.2387 491.589 41.2387L485.022 41.2594C485.015 41.2594 485.008 41.2658 485.008 41.273L481.469 64.2829C481.469 64.2876 481.472 64.2892 481.474 64.294C481.476 64.2988 481.481 64.2988 481.485 64.2988L499.132 64.2446C499.139 64.2446 499.145 64.2374 499.145 64.2311L499.959 59.0715C499.96 59.0667 499.959 59.0619 499.956 59.0579C499.952 59.0555 499.949 59.0532 499.945 59.0532L488.899 59.0866C488.898 59.0866 488.893 59.0866 488.89 59.0826C488.886 59.0802 488.886 59.0754 488.886 59.0715V59.0715ZM515.082 64.6533C517.691 64.6461 520.229 64.1251 522.517 62.8537C524.638 61.6771 526.289 60.033 527.426 57.9036C528.61 55.6931 529.048 53.2834 528.928 50.7956C528.838 48.9052 528.316 47.1256 527.264 45.5364C526.216 43.9559 524.787 42.7833 523.07 41.9636C521.14 41.0428 519.014 40.6946 516.882 40.6994C514.274 40.7082 511.738 41.23 509.448 42.4989C507.33 43.6755 505.677 45.3213 504.538 47.449C503.355 49.662 502.919 52.0709 503.039 54.5571C503.129 56.4498 503.651 58.2287 504.703 59.8163C505.752 61.3991 507.178 62.571 508.895 63.3907C510.826 64.3123 512.95 64.6597 515.082 64.6533V64.6533ZM515.388 59.234C513.886 59.238 512.425 58.8906 511.3 57.8566C510.225 56.8625 509.753 55.576 509.683 54.1421C509.616 52.7576 509.821 51.3962 510.383 50.1224C510.912 48.9299 511.706 47.9501 512.793 47.214C513.924 46.4461 515.216 46.1235 516.58 46.1187C518.08 46.1139 519.543 46.4644 520.666 47.4984C521.743 48.4894 522.214 49.7791 522.282 51.213C522.35 52.5975 522.147 53.9589 521.582 55.2326C521.056 56.4244 520.261 57.405 519.175 58.141C518.041 58.909 516.749 59.2292 515.388 59.234ZM548.117 58.5816C547.153 58.9743 546.121 59.1392 545.083 59.1408C543.49 59.1456 541.88 58.8181 540.647 57.7634C539.502 56.7836 538.982 55.4947 538.911 54.0178C538.843 52.6015 539.052 51.2018 539.674 49.9145C540.254 48.7156 541.119 47.7653 542.269 47.0715C543.504 46.3266 544.902 46.0311 546.341 46.0263C547.44 46.0215 548.558 46.1705 549.578 46.5911C550.592 47.0061 551.444 47.7127 552.156 48.5324C552.16 48.5396 552.169 48.5396 552.175 48.5348L556.708 44.8409C556.715 44.8338 556.715 44.825 556.71 44.8178C554.139 41.6386 550.357 40.5959 546.379 40.607C543.716 40.6158 541.108 41.1264 538.762 42.4089C536.625 43.576 534.942 45.209 533.784 47.3407C532.585 49.5537 532.149 51.9713 532.269 54.4671C532.359 56.375 532.889 58.1657 533.967 59.7573C535.039 61.3402 536.489 62.5056 538.226 63.3142C540.173 64.2215 542.305 64.5672 544.445 64.5609C546.128 64.5561 547.799 64.3306 549.407 63.8383C550.879 63.3882 552.266 62.7183 553.476 61.7696C553.479 61.7672 553.481 61.7648 553.481 61.7608L554.972 52.0646C554.974 52.0598 554.972 52.055 554.969 52.0534C554.965 52.0486 554.962 52.0462 554.958 52.0462L549.152 52.0646C549.145 52.0646 549.139 52.0709 549.139 52.0781L548.127 58.5696C548.127 58.5744 548.122 58.5792 548.117 58.5816V58.5816ZM561.999 41.018C561.991 41.018 561.984 41.0244 561.984 41.0316L558.447 64.0415C558.447 64.0455 558.447 64.0478 558.449 64.0526C558.454 64.055 558.456 64.0574 558.463 64.0574L565.03 64.0367C565.037 64.0367 565.044 64.0319 565.044 64.0231L568.58 41.0157C568.583 41.0109 568.58 41.0061 568.578 41.0045C568.574 40.9997 568.571 40.9973 568.567 40.9973L561.999 41.018ZM579.554 64.4525C581.538 64.4454 583.558 64.1721 585.398 63.4137C586.909 62.79 588.248 61.8691 589.181 60.5205C590.075 59.2292 590.428 57.7754 590.353 56.2212C590.296 55.0383 589.955 53.9159 589.136 53.0284C588.397 52.231 587.521 51.6216 586.505 51.2265C585.279 50.7478 583.994 50.402 582.715 50.0866C581.703 49.838 580.633 49.5513 579.687 49.1131C579.132 48.8534 578.7 48.4536 578.67 47.8147C578.634 47.081 579.088 46.568 579.696 46.2159C580.57 45.7076 581.73 45.5858 582.726 45.5834C583.869 45.5794 585.006 45.7236 586.112 46.0151C587.189 46.2995 588.219 46.7241 589.171 47.3017C589.174 47.3041 589.179 47.304 589.183 47.304C589.187 47.3016 589.19 47.3001 589.192 47.2953L591.349 42.4583C591.351 42.4519 591.349 42.4424 591.342 42.44C590.174 41.7493 588.873 41.2929 587.553 40.9886C586.024 40.6365 584.449 40.4867 582.88 40.4939C580.895 40.4987 578.862 40.7671 577.019 41.5303C575.518 42.1532 574.192 43.0749 573.271 44.4227C572.381 45.726 572.043 47.1957 572.117 48.7562C572.176 49.9711 572.519 51.1293 573.356 52.0462C574.102 52.8612 574.99 53.4889 576.021 53.8975C577.257 54.3882 578.544 54.7563 579.829 55.0853C580.823 55.341 581.884 55.623 582.81 56.0611C583.348 56.316 583.779 56.7048 583.808 57.3277C583.842 58.0192 583.431 58.4955 582.844 58.8118C582.006 59.2587 580.88 59.3582 579.942 59.3598C578.585 59.3646 577.241 59.1663 575.938 58.7982C574.587 58.4183 573.305 57.8519 572.113 57.1198C572.108 57.1182 572.103 57.1182 572.099 57.1182C572.094 57.1198 572.092 57.1222 572.09 57.127L569.737 61.995C569.735 62.0022 569.737 62.0109 569.743 62.0157C571.037 62.849 572.557 63.3907 574.045 63.777C575.843 64.247 577.697 64.4565 579.554 64.4525V64.4525ZM600.818 46.1004L598.067 63.9148C598.067 63.9196 598.067 63.9236 598.07 63.9284C598.074 63.9308 598.076 63.9331 598.083 63.9331L604.65 63.9124C604.657 63.9124 604.664 63.9061 604.664 63.8989L607.417 46.0757C607.419 46.0693 607.424 46.0645 607.431 46.0645L614.504 46.0422C614.513 46.0422 614.517 46.0374 614.52 46.0287L615.332 40.8691C615.332 40.8643 615.332 40.8595 615.328 40.8556C615.326 40.8532 615.321 40.8508 615.316 40.8508L594.522 40.9161C594.512 40.9161 594.506 40.9209 594.506 40.9296L593.693 46.0892C593.693 46.094 593.693 46.0988 593.695 46.1028C593.7 46.1052 593.702 46.1075 593.709 46.1075L600.805 46.0852C600.809 46.0852 600.813 46.0868 600.816 46.0892C600.818 46.094 600.821 46.0964 600.818 46.1004V46.1004ZM618.941 40.8396C618.934 40.8396 618.928 40.8436 618.925 40.8532L615.389 63.8606C615.389 63.8654 615.391 63.8694 615.394 63.8742C615.395 63.8766 615.4 63.879 615.405 63.879L621.972 63.8583C621.978 63.8583 621.985 63.8519 621.988 63.8447L625.524 40.8372C625.524 40.8324 625.524 40.8285 625.52 40.8237C625.517 40.8213 625.513 40.8189 625.508 40.8189L618.941 40.8396ZM640.51 64.2605C642.46 64.2534 644.429 63.9777 646.24 63.2377C647.958 62.5375 649.363 61.3991 650.499 59.9517C650.504 59.9453 650.504 59.9358 650.497 59.9318L646.437 56.1647C646.432 56.1631 646.43 56.1607 646.425 56.1607C646.421 56.1631 646.416 56.1631 646.414 56.1671C644.977 57.8877 643.153 58.8341 640.881 58.8404C639.338 58.8452 637.85 58.482 636.678 57.4456C635.56 56.4586 635.047 55.1785 634.978 53.7151C634.91 52.3035 635.12 50.915 635.723 49.6301C636.28 48.4448 637.103 47.4761 638.218 46.7687C639.384 46.0311 640.701 45.7308 642.073 45.726C644.286 45.7188 646.057 46.5616 647.299 48.3946C647.301 48.3994 647.304 48.4018 647.308 48.4018C647.312 48.4042 647.317 48.4018 647.319 48.3994L651.884 44.6394C651.89 44.6354 651.89 44.6259 651.886 44.6195C650.946 43.1561 649.598 42.1261 648.01 41.4219C646.195 40.6181 644.228 40.2995 642.245 40.3067C639.621 40.3154 637.067 40.8324 634.76 42.1062C632.633 43.2804 630.976 44.9222 629.835 47.0555C628.652 49.2685 628.214 51.6758 628.334 54.1644C628.424 56.0683 628.948 57.8606 630.016 59.457C631.08 61.0446 632.536 62.2077 634.273 63.0138C636.229 63.9172 638.363 64.2669 640.51 64.2605Z" fill="#FEC601"></path>
  <path fill-rule="evenodd" clip-rule="evenodd" d="M498.126 34.8852C498.123 34.7426 498.085 34.6318 497.997 34.5195C497.924 34.4287 497.836 34.3522 497.762 34.2614C497.664 34.1371 497.609 34.0089 497.582 33.8552C497.421 32.9813 497.439 32.1688 497.663 31.31C497.733 31.0416 497.821 30.7818 497.897 30.5182C497.95 30.3437 498.004 30.1318 497.981 29.951C497.455 29.9622 496.924 29.9486 496.398 29.9422C495.657 29.9311 494.914 29.9175 494.173 29.9104C493.313 29.9016 492.446 29.8945 491.586 29.9239C491.267 29.9351 490.942 29.9486 490.626 29.9828C490.463 29.9988 490.215 30.0259 490.066 30.0888L489.06 34.8557C489.115 34.8716 489.187 34.8756 489.243 34.8828C489.359 34.8915 489.471 34.8987 489.587 34.9027C489.936 34.921 490.289 34.9258 490.639 34.9321C491.633 34.9457 492.624 34.9433 493.618 34.9393C494.571 34.9321 495.526 34.9234 496.481 34.9122C497.03 34.9051 497.579 34.8987 498.126 34.8852ZM617.687 14.9621C617.605 14.9733 617.495 14.9868 617.492 14.9733C617.49 14.9549 617.679 14.9191 617.695 14.9143C617.714 14.9095 617.901 14.8689 617.907 14.8896C617.91 14.9008 617.874 14.9143 617.837 14.9278C617.844 14.9254 617.851 14.9255 617.858 14.9231C618.029 14.896 618.208 14.8848 618.38 14.8713C618.635 14.8538 618.894 14.8402 619.152 14.8267C619.804 14.7948 620.461 14.7677 621.116 14.7335C621.754 14.7 622.393 14.6634 623.027 14.6028C623.282 14.5781 623.537 14.5511 623.791 14.5104C623.96 14.4833 624.147 14.4491 624.312 14.3925C623.678 13.2685 618.583 10.9807 617.241 10.5537C616.946 10.4589 616.648 10.3665 616.351 10.2741C614.976 9.84951 613.59 9.45917 612.176 9.17399C610.723 8.87845 609.258 8.7024 607.772 8.69125C607.82 8.89199 608.109 9.13336 608.258 9.26002C608.388 9.37075 608.524 9.47908 608.646 9.59857C608.795 9.74355 608.932 9.90847 609.012 10.102C609.059 10.2152 609.075 10.3346 609.121 10.4454C609.177 10.588 609.283 10.6692 609.414 10.7441L611.934 11.4682C612.368 11.6243 613.671 12.3221 613.897 12.695C613.897 12.6973 613.897 12.6974 613.897 12.699C613.897 12.699 613.897 12.7013 613.894 12.7013C613.861 12.7197 613.82 12.7443 613.791 12.769C613.784 12.7738 613.775 12.7874 613.77 12.7922C613.768 12.7938 613.531 12.8057 613.52 12.8073L613.275 12.8009C613.194 12.7938 613.066 12.7491 612.987 12.7244C612.892 12.6926 612.795 12.6607 612.7 12.6273C611.83 12.315 609.976 11.6857 609.097 12.033L608.856 24.0984C608.856 24.0999 608.854 24.0999 608.854 24.1023C608.851 24.1023 608.851 24.1023 608.85 24.1023C608.531 24.0713 608.095 23.994 607.925 23.6873C607.82 23.4905 607.831 23.2261 607.849 23.0118C607.874 22.6915 607.919 22.3817 607.923 22.059L607.993 16.2876C607.659 16.3028 607.311 16.3976 606.993 16.4932C606.668 16.5896 606.331 16.7051 605.997 16.7664C605.547 16.8477 605.069 16.8747 604.613 16.8811C604.055 16.8883 603.493 16.8612 602.937 16.8047C602.106 16.7186 601.153 16.5513 600.382 16.2199C600.284 16.1745 600.184 16.1228 600.084 16.0821C600.017 16.055 599.929 16.0232 599.857 16.0455C599.633 16.1156 599.635 16.7369 599.633 16.9058L599.551 22.0367C599.547 22.2263 599.55 22.4159 599.551 22.6055C599.554 22.7481 599.556 22.8923 599.551 23.0365C599.547 23.2149 599.536 23.4316 599.43 23.5853C599.297 23.7773 599.019 23.8586 598.804 23.9151C598.802 23.9151 598.799 23.9151 598.798 23.9127C598.725 23.8156 598.646 23.7184 598.579 23.6172C598.569 23.6036 598.529 23.5495 598.544 23.5312C598.565 23.5089 598.615 23.5423 598.59 23.4316L598.775 11.5295C598.784 10.9425 598.834 9.97379 599.208 9.48149C599.305 9.35085 599.418 9.26241 599.561 9.18593C599.665 9.12938 599.784 9.07919 599.875 9.0075C600.033 8.87606 600.062 8.68011 600.062 8.48573C599.532 8.34792 597.334 8.11529 596.9 8.36622C596.844 8.38374 596.792 8.40926 596.745 8.44511C596.209 8.83544 596.397 10.2398 596.437 10.8253C596.485 11.5295 596.49 12.2473 596.491 12.9547C596.496 13.862 596.485 14.7677 596.469 15.6735C596.442 17.2197 596.397 18.7667 596.367 20.3161C596.356 20.8395 596.334 21.3684 596.313 21.8918C596.284 22.6461 596.257 23.4005 596.234 24.1541C596.221 24.613 596.101 28.0814 596.374 28.3188C596.577 28.4948 600.846 28.6342 601.496 28.6748C601.499 28.6748 601.499 28.6772 601.501 28.6796C601.585 28.8334 601.686 28.9823 601.788 29.1265C601.926 29.3233 602.072 29.5176 602.219 29.7096C602.578 30.1764 602.953 30.6353 603.328 31.0917C603.65 31.4797 603.974 31.8684 604.299 32.2563C604.556 32.5662 604.814 32.8753 605.065 33.1868C605.227 33.3923 605.382 33.6002 605.539 33.8081C605.755 34.0965 605.972 34.3769 606.209 34.6478C609.405 34.7266 612.6 34.8063 615.796 34.8668C617.53 34.9011 619.267 34.9281 621.004 34.9433C622.512 34.9568 624.023 34.964 625.532 34.9457C625.54 34.7585 625.43 34.4151 625.374 34.2367C625.32 34.0606 625.261 33.887 625.211 33.7133C624.931 32.7534 624.976 31.78 625.414 30.8727C626.25 29.1536 628.232 28.1674 630.082 27.973C632.25 27.7468 634.339 28.533 635.626 30.3166C636.292 31.2407 636.586 32.2404 636.385 33.3676C636.32 33.7404 636.206 34.0878 636.081 34.4422C636.017 34.6231 635.891 34.9417 635.897 35.1313C636.017 35.1584 636.151 35.1695 636.273 35.1807C636.468 35.1966 636.665 35.2078 636.862 35.2165C637.372 35.242 637.883 35.2532 638.393 35.2572C638.914 35.2619 639.439 35.2595 639.96 35.246C640.159 35.242 640.358 35.2325 640.554 35.2213C640.672 35.2125 640.805 35.2054 640.92 35.1807C642.239 34.9122 642.977 33.8368 643.005 32.5431C643.022 31.6716 643.005 30.7866 642.946 29.9151C642.91 29.3726 642.856 28.8262 642.762 28.2933C642.691 27.8758 642.586 27.4082 642.41 27.0219C640.737 23.4029 635.231 22.1833 631.629 21.7651C631.444 21.7452 631.245 21.7245 631.065 21.6822C630.965 21.6591 630.87 21.6281 630.791 21.5667C630.705 21.499 630.631 21.3955 630.563 21.3118C630.401 21.1063 630.252 20.8936 630.114 20.6706C629.868 20.2818 629.644 19.8867 629.392 19.5027C628.941 18.828 628.435 18.1844 627.916 17.563C627.171 16.6692 626.245 15.3684 624.956 15.3118L617.596 14.9979C617.591 14.9979 617.589 14.9956 617.589 14.9932C617.589 14.9916 617.591 14.9892 617.593 14.9868C617.625 14.9796 617.655 14.9709 617.687 14.9621V14.9621ZM628.856 21.5173C628.922 21.5054 628.989 21.4942 628.992 21.5038C628.994 21.5189 628.773 21.5715 628.754 21.5755C628.734 21.5803 628.513 21.6368 628.508 21.6185C628.506 21.6121 628.56 21.5914 628.612 21.5755L626.954 21.6504C626.322 21.6392 625.688 21.6416 625.055 21.6392C624.116 21.6368 623.174 21.6321 622.232 21.6209C621.173 21.6098 620.112 21.5938 619.053 21.546C618.669 21.5285 618.282 21.5078 617.898 21.472C617.727 21.4536 617.424 21.4265 617.266 21.3612C617.264 21.3588 617.264 21.3588 617.264 21.3588C617.244 21.3293 617.228 21.2935 617.214 21.2593L617.115 20.9438C617.095 20.8235 617.099 20.6881 617.099 20.5686C617.097 20.2683 617.122 19.9656 617.13 19.6652C617.14 19.3155 617.142 18.965 617.138 18.6153C617.135 18.3763 617.13 18.1342 617.133 17.8952C617.133 17.7008 617.126 17.3328 617.282 17.1886C617.379 17.0978 617.537 17.0818 617.666 17.0755C617.91 17.0619 618.167 17.0779 618.411 17.0819C619.267 17.0978 620.12 17.089 620.974 17.0866C621.742 17.0842 622.514 17.0842 623.28 17.1273C624.513 17.1974 625.868 17.3846 626.916 18.08C627.431 18.421 627.835 18.8615 628.151 19.388C628.341 19.7019 628.556 19.9998 628.736 20.3177C628.933 20.6658 629.075 21.0179 629.132 21.4154C629.132 21.4202 629.132 21.4225 629.129 21.4225L628.883 21.5102C628.874 21.5126 628.865 21.515 628.856 21.5173V21.5173ZM601.08 30.0752L578.213 29.9056C578.26 30.3127 578.4 30.601 578.617 30.9443C578.888 31.3785 579.08 31.6852 579.145 32.2094C579.256 33.0562 578.967 34.1013 578.703 34.8987L604.852 34.878C604.841 34.862 604.818 34.831 604.809 34.8214C604.768 34.7673 604.728 34.7155 604.685 34.6613C604.543 34.4781 604.398 34.2957 604.254 34.1124C603.823 33.5636 603.388 33.0171 602.957 32.4691C602.551 31.9537 602.145 31.439 601.738 30.9244C601.593 30.7388 601.448 30.554 601.304 30.3684C601.229 30.272 601.153 30.1748 601.08 30.0752V30.0752ZM569.132 34.8828C569.112 34.6701 569.049 34.5036 568.943 34.3204C568.827 34.1236 568.705 33.9571 568.619 33.7444C568.491 33.4306 568.464 33.092 568.475 32.7574C568.497 32.0891 568.633 31.4526 568.938 30.8567C569.022 30.6942 569.116 30.5453 569.206 30.3891C569.238 30.3373 569.315 30.2155 569.288 30.1517C569.245 30.0593 568.94 30.0617 568.859 30.0617C568.681 30.0569 568.502 30.0593 568.321 30.0593C568.053 30.0641 567.783 30.0665 567.513 30.0665C567.109 30.0593 566.704 30.037 566.3 30.0259C565.857 30.0139 565.383 30.0004 564.945 30.0506C564.936 30.1565 565.004 30.319 565.044 30.4162C565.123 30.6058 565.214 30.7914 565.297 30.9786C565.499 31.4366 565.677 31.9337 565.688 32.4372C565.699 33.0538 565.566 33.6002 565.234 34.122C565.131 34.2821 565.015 34.4287 564.902 34.5824C564.841 34.6685 564.753 34.7903 564.744 34.9011C565.042 34.8963 565.342 34.8987 565.64 34.8987C566.103 34.8987 566.565 34.8987 567.027 34.8987C567.429 34.8987 567.834 34.8963 568.235 34.8939C568.533 34.8915 568.833 34.8915 569.132 34.8828V34.8828ZM520.535 30.0729C520.643 30.2354 520.74 30.3891 520.827 30.5676C520.968 30.8679 521.066 31.1841 521.122 31.5115C521.312 32.6427 520.987 33.8304 520.524 34.8605C520.56 34.8692 520.63 34.8716 520.664 34.8716C520.774 34.878 520.882 34.8828 520.993 34.8852C521.379 34.8963 521.766 34.9011 522.152 34.9051C523.473 34.921 524.796 34.9258 526.117 34.9282C530.059 34.9393 533.999 34.9369 537.938 34.9393C541.838 34.9393 545.738 34.9369 549.638 34.9529C550.964 34.9592 552.289 34.9664 553.615 34.9839C554.013 34.9887 554.41 34.9959 554.808 35.0094C554.927 35.011 555.047 35.0158 555.164 35.023C555.218 35.0269 555.286 35.0293 555.34 35.0381C555.338 34.8692 555.306 34.7266 555.241 34.5713C555.198 34.4669 555.149 34.3681 555.108 34.2662C555.053 34.1308 555.015 33.9977 554.988 33.8552C554.835 33.0084 554.86 32.2253 555.142 31.4096C555.228 31.1634 555.334 30.9284 555.426 30.6847C555.49 30.5221 555.553 30.3278 555.53 30.1493C555.329 30.1406 555.126 30.1382 554.927 30.1358C554.514 30.1271 554.1 30.1207 553.688 30.1159C552.35 30.0952 551.013 30.08 549.676 30.0641C545.801 30.0211 541.924 29.9868 538.049 29.9621C534.107 29.9375 530.165 29.9175 526.226 29.9327C524.894 29.9398 523.559 29.9462 522.229 29.9781C521.834 29.9868 521.436 29.9964 521.043 30.0187C520.946 30.0235 520.627 30.037 520.535 30.0729V30.0729ZM507.328 29.9534C507.317 30.1246 507.468 30.5269 507.525 30.6918C507.656 31.0758 507.785 31.4613 507.864 31.8588C507.902 32.062 507.929 32.2699 507.934 32.4778C507.945 33.0307 507.881 33.5931 507.664 34.1061C507.604 34.2526 507.529 34.3881 507.459 34.5283C507.414 34.6207 507.364 34.7266 507.358 34.831C507.586 34.862 507.823 34.8692 508.051 34.874C508.365 34.878 508.679 34.8756 508.99 34.874C509.806 34.8716 510.614 34.8756 511.43 34.9321C511.406 34.7067 511.348 34.5283 511.255 34.3251C511.165 34.1308 511.077 33.9595 511.019 33.7516C510.93 33.4401 510.913 33.1103 510.924 32.7869C510.913 32.5208 510.946 32.2476 511.005 31.9879C511.102 31.541 511.265 31.1204 511.42 30.6918C511.465 30.5699 511.66 30.0936 511.547 29.9828C511.52 29.9558 511.479 29.951 511.441 29.951C511.281 29.9598 511.12 29.9598 510.96 29.9582C510.711 29.9558 510.461 29.9534 510.212 29.951C509.25 29.9398 508.29 29.9422 507.328 29.9534" fill="white"></path>
  <path fill-rule="evenodd" clip-rule="evenodd" d="M626.7 33.8934C627.061 36.0052 629.261 38.0055 631.971 37.3284C633.994 36.8225 635.846 34.8446 635.349 32.1911C634.315 26.681 625.65 27.7588 626.7 33.8934ZM631.027 31.0934C632.098 31.0982 632.964 31.9696 632.96 33.0427C632.958 34.1173 632.086 34.984 631.016 34.9824C629.945 34.98 629.078 34.1061 629.08 33.0331C629.084 31.9585 629.954 31.0918 631.027 31.0934" fill="white"></path>
  <path fill-rule="evenodd" clip-rule="evenodd" d="M569.153 33.1191C569.514 35.2301 571.714 37.2311 574.424 36.554C576.447 36.0482 578.299 34.0694 577.802 31.4167C576.768 25.9066 568.103 26.9836 569.153 33.1191ZM573.479 30.3214C574.55 30.3238 575.417 31.1953 575.413 32.2699C575.411 33.3429 574.539 34.2096 573.468 34.2072C572.398 34.2056 571.531 33.331 571.533 32.2587C571.536 31.1841 572.407 30.3166 573.479 30.3214" fill="white"></path>
  <path fill-rule="evenodd" clip-rule="evenodd" d="M555.961 33.1191C556.321 35.2301 558.523 37.2311 561.23 36.554C563.256 36.0482 565.107 34.0694 564.611 31.4167C563.577 25.9066 554.911 26.9836 555.961 33.1191ZM560.287 30.3214C561.359 30.3238 562.224 31.1953 562.222 32.2699C562.219 33.3429 561.348 34.2096 560.277 34.2072C559.205 34.2056 558.339 33.331 558.342 32.2587C558.344 31.1841 559.216 30.3166 560.287 30.3214Z" fill="white"></path>
  <path fill-rule="evenodd" clip-rule="evenodd" d="M511.494 33.1191C511.855 35.2301 514.057 37.2311 516.765 36.554C518.791 36.0482 520.642 34.0694 520.145 31.4167C519.111 25.9066 510.446 26.9836 511.494 33.1191ZM515.821 30.3214C516.893 30.3238 517.758 31.1953 517.756 32.2699C517.754 33.3429 516.882 34.2096 515.812 34.2072C514.739 34.2056 513.874 33.331 513.876 32.2587C513.878 31.1841 514.75 30.3166 515.821 30.3214" fill="white"></path>
  <path fill-rule="evenodd" clip-rule="evenodd" d="M498.154 33.1191C498.515 35.2301 500.714 37.2311 503.425 36.554C505.451 36.0482 507.3 34.0694 506.804 31.4167C505.771 25.9066 497.104 26.9836 498.154 33.1191ZM502.481 30.3214C503.552 30.3238 504.418 31.1953 504.416 32.2699C504.412 33.3429 503.54 34.2096 502.47 34.2072C501.399 34.2056 500.532 33.331 500.534 32.2587C500.538 31.1841 501.408 30.3166 502.481 30.3214Z" fill="white"></path>
</svg>
