<?xml version="1.0" encoding="UTF-8"?>
<svg xmlns="http://www.w3.org/2000/svg" width="1024" height="1025" viewBox="0 0 1024 1025" fill="none">
  <path d="M219.982 531.082L64.4319 375.533C22.8829 333.984 -6.51524e-05 278.743 -7.02895e-05 219.982C-8.08937e-05 98.684 98.6839 -8.62723e-06 219.982 -1.92314e-05C341.28 -2.98356e-05 439.964 98.684 439.964 219.982C439.964 278.743 417.082 333.983 375.531 375.533L219.982 531.082ZM219.982 59.993C131.764 59.993 59.9929 131.764 59.9929 219.983C59.9929 262.717 76.6349 302.895 106.853 333.113L219.982 446.241L333.112 333.113C363.33 302.895 379.973 262.717 379.973 219.983C379.973 131.765 308.202 59.993 219.982 59.993ZM219.971 319.978C164.835 319.978 119.979 275.12 119.979 219.985C119.979 164.85 164.836 119.993 219.971 119.993C275.106 119.993 319.962 164.85 319.962 219.985C319.962 275.12 275.106 319.978 219.971 319.978ZM219.971 179.986C197.915 179.986 179.971 197.93 179.971 219.986C179.971 242.041 197.915 259.986 219.971 259.986C242.026 259.986 259.969 242.041 259.969 219.986C259.969 197.93 242.025 179.986 219.971 179.986ZM863.883 1024L750.749 910.872C720.534 880.654 703.893 840.476 703.893 797.742C703.893 709.524 775.664 637.753 863.882 637.753C952.099 637.753 1023.87 709.524 1023.87 797.742C1023.87 840.475 1007.23 880.651 977.012 910.872L863.883 1024ZM793.173 868.448L863.883 939.156L934.589 868.448C953.476 849.561 963.879 824.448 963.879 797.738C963.879 742.601 919.019 697.742 863.883 697.742C808.745 697.742 763.887 742.602 763.887 797.738C763.887 824.449 774.288 849.562 793.173 868.448ZM717.907 1023.88L383.042 1023.88C276.586 1023.88 189.978 937.271 189.978 830.815C189.978 724.359 276.587 637.749 383.042 637.749L494.356 637.749C527.191 637.749 553.901 611.039 553.901 578.204C553.901 545.371 527.191 518.659 494.356 518.659L377.966 518.659L377.966 458.666L494.356 458.666C560.27 458.666 613.894 512.29 613.894 578.204C613.894 644.118 560.27 697.742 494.356 697.742L383.042 697.742C309.667 697.742 249.971 757.438 249.971 830.813C249.971 904.188 309.665 963.884 383.042 963.884L717.91 963.884L717.91 1023.88L717.907 1023.88Z" fill="#FECF60"></path>
</svg>
