<?xml version="1.0" encoding="UTF-8"?>
<svg xmlns="http://www.w3.org/2000/svg" width="1024" height="1025" viewBox="0 0 1024 1025" fill="none">
  <path d="M576.71 207.18L448.075 207.18C408.03 252.825 357.758 287.985 301.245 309.963L301.245 478.46C301.245 620.957 383.739 748.747 512.392 807.245C641.045 748.748 723.539 620.958 723.539 478.46L723.539 309.982C667.006 288.005 616.754 252.844 576.709 207.181L576.71 207.18ZM660.398 444.088L489.019 615.45C483.64 620.829 476.59 623.526 469.558 623.526C462.508 623.526 455.457 620.827 450.077 615.45L364.388 529.778C353.646 519.019 353.646 501.576 364.388 490.817C375.147 480.075 392.59 480.075 403.349 490.817L469.558 557.024L621.454 405.145C632.196 394.386 649.639 394.386 660.398 405.145C671.138 415.904 671.138 433.328 660.398 444.088ZM861.08 170.459C781.688 170.459 709.384 126.834 672.332 56.6229C667.575 47.5889 658.194 41.9339 647.984 41.9339L376.797 41.9339C366.589 41.9339 357.207 47.589 352.433 56.623C315.401 126.834 243.097 170.459 163.541 170.459C148.338 170.459 136 182.797 136 198.001L136 478.459C136 591.211 171.234 698.879 237.883 789.819C304.532 880.759 396.574 946.765 504.094 980.714C506.793 981.577 509.602 982 512.393 982C515.183 982 517.993 981.577 520.691 980.714C628.214 946.766 720.253 880.76 786.902 789.819C853.551 698.876 888.787 591.212 888.787 478.459L888.787 198.001C888.787 182.797 876.282 170.459 861.08 170.459ZM778.621 477.211C778.621 645.872 678.281 796.706 522.987 861.463C519.589 862.878 515.99 863.575 512.393 863.575C508.794 863.575 505.176 862.877 501.799 861.463C346.504 796.706 246.163 645.871 246.163 477.211L246.163 289.346C246.163 277.447 253.801 266.89 265.11 263.182C323.554 243.958 375.036 208.613 413.979 160.968C419.211 154.56 427.051 150.851 435.313 150.851L589.469 150.851C597.916 150.851 607.867 157.387 610.803 160.968C649.745 208.613 701.229 243.958 759.671 263.182C767.734 265.826 773.9 271.94 776.802 279.559C776.841 279.633 776.856 279.724 776.893 279.797C777.593 281.689 778.087 283.671 778.364 285.709C778.382 285.91 778.418 286.132 778.438 286.333C778.549 287.323 778.621 288.316 778.621 289.345L778.621 477.21L778.621 477.211Z" fill="#FECF60"></path>
</svg>
