<?xml version="1.0" encoding="UTF-8"?>
<svg xmlns="http://www.w3.org/2000/svg" width="1024" height="1025" viewBox="0 0 1024 1025" fill="none">
  <path d="M874.105 779.394L740.575 779.394C656.429 779.394 587.969 710.935 587.969 626.789C587.969 542.645 656.429 474.184 740.575 474.184L874.105 474.184C884.649 474.184 893.182 465.651 893.182 455.107L893.182 397.881C893.182 357.88 862.155 325.347 822.952 322.192L713.397 130.839C703.244 113.142 686.85 100.493 667.235 95.2399C647.712 90.0229 627.296 92.7629 609.822 102.933L234.262 321.577L168.303 321.577C126.222 321.577 91.9999 355.797 92 397.88L92 855.697C92 897.778 126.22 932 168.303 932L816.878 932C858.959 932 893.181 897.78 893.181 855.697L893.181 798.469C893.181 787.925 884.648 779.392 874.104 779.392L874.105 779.394ZM737.055 248.979L778.619 321.579L612.355 321.579L737.055 248.979ZM310.089 321.579L629.026 135.907C637.651 130.859 647.728 129.517 657.361 132.089C667.104 134.697 675.227 140.993 680.275 149.804L680.315 149.874L385.398 321.579L310.089 321.579ZM874.111 512.335L740.581 512.335C677.466 512.335 626.126 563.676 626.126 626.79C626.126 689.904 677.465 741.245 740.581 741.245L874.111 741.245C905.669 741.245 931.339 715.574 931.339 684.019L931.339 569.564C931.339 538.006 905.668 512.336 874.111 512.336L874.111 512.335ZM740.582 664.941C719.551 664.941 702.43 647.82 702.43 626.789C702.43 605.758 719.551 588.639 740.582 588.639C761.613 588.639 778.732 605.758 778.732 626.789C778.734 647.82 761.614 664.941 740.582 664.941Z" fill="#FECF60"></path>
</svg>
