<?xml version="1.0" encoding="UTF-8"?>
<svg xmlns="http://www.w3.org/2000/svg" width="1025" height="1026" viewBox="0 0 1025 1026" fill="none">
  <path d="M305.24 597.548C305.24 612.215 293.506 624.368 278.629 624.368C271.295 624.368 264.59 621.435 259.771 616.616C254.952 611.797 252.019 605.092 252.019 597.758C252.019 583.09 263.753 570.938 278.63 570.938C293.089 570.938 305.241 582.882 305.241 597.549L305.24 597.548ZM323.051 730.602C312.574 741.079 312.784 757.842 323.051 768.319C333.528 778.586 350.499 778.586 360.768 768.109C371.245 757.632 371.035 740.661 360.558 730.394C350.291 720.125 333.32 720.125 323.051 730.602ZM493.406 408.547C508.073 408.547 520.226 396.603 520.226 381.725C520.226 366.848 508.282 354.905 493.406 354.905C478.528 354.905 466.586 366.849 466.586 381.725C466.586 389.059 469.519 395.764 474.338 400.583C479.367 405.612 486.072 408.547 493.406 408.547ZM322.003 464.493C332.48 474.76 349.451 474.76 359.72 464.283L359.928 464.073C360.138 463.863 360.138 463.863 360.348 463.653C370.825 453.176 370.825 436.415 360.348 425.938C349.871 415.461 332.9 415.461 322.631 425.938C322.421 426.146 322.421 426.146 322.213 426.356C322.003 426.566 322.003 426.566 321.793 426.776C311.526 437.043 311.526 454.016 322.003 464.493ZM494.034 785.292C479.157 785.292 467.423 797.234 467.423 812.112C467.423 819.445 470.356 826.151 475.175 830.97C479.994 835.789 486.699 838.722 494.243 838.722C508.91 838.722 520.854 826.778 520.854 811.902C520.854 797.234 508.908 785.291 494.034 785.291L494.034 785.292ZM627.087 729.764C616.61 740.241 616.61 757.214 627.087 767.481C637.564 777.958 654.537 777.958 664.804 767.481C675.281 757.004 675.071 740.031 664.804 729.554C654.327 719.287 637.357 719.287 627.087 729.764ZM708.599 569.89C693.721 569.89 681.779 581.832 681.779 596.71C681.779 604.043 684.712 610.749 689.531 615.568C694.351 620.386 701.055 623.53 708.389 623.32C723.266 623.32 735 611.376 735.209 596.5C735.419 581.832 723.473 569.889 708.598 569.889L708.599 569.89ZM494.663 1025C258.935 1025 67 833.065 67 597.337C66.9999 378.582 232.324 197.754 444.582 172.818L444.582 108.071L417.971 108.071C404.562 108.071 393.875 97.175 393.875 83.974L393.875 25.094C393.875 11.684 404.77 0.997041 417.971 0.99704L571.351 0.997026C584.762 0.997025 595.447 11.8929 595.447 25.0939L595.447 83.974C595.447 97.384 584.552 108.071 571.351 108.071L544.74 108.071L544.74 172.608C625.411 182.037 699.168 214.097 759.723 262.08L794.505 227.296L791.362 224.153C781.933 214.724 781.933 199.428 791.362 189.998L839.136 142.224C848.565 132.795 863.861 132.795 873.291 142.224L950.61 219.543C960.039 228.972 960.039 244.268 950.61 253.698L902.836 301.472C893.407 310.901 878.111 310.901 868.681 301.472L865.538 298.329L830.754 333.111C888.167 405.82 922.321 497.596 922.321 597.125C922.321 833.063 730.386 1025 494.66 1025L494.663 1025ZM823.003 597.338C823.003 416.3 675.7 268.997 494.66 268.997C313.622 268.997 166.318 416.3 166.318 597.338C166.318 778.376 313.412 925.681 494.66 925.681C675.702 925.681 823.003 778.376 823.003 597.338ZM666.482 423.842C676.329 433.691 676.959 449.615 667.947 460.092L558.99 587.699C561.713 607.605 555.636 628.35 540.341 643.646C514.568 669.419 472.66 669.419 446.679 643.646C420.906 617.873 420.906 575.965 446.679 549.984C461.974 534.688 482.719 528.611 502.625 531.335L630.232 422.376C640.915 413.365 656.631 413.995 666.482 423.842ZM512.472 578.061C501.995 567.584 485.024 567.584 474.757 578.061C464.279 588.538 464.279 605.509 474.757 615.776C485.234 626.253 502.205 626.253 512.472 615.776C522.949 605.299 522.949 588.538 512.472 578.061Z" fill="#FECF60"></path>
</svg>
