<?xml version="1.0" encoding="UTF-8"?>
<svg xmlns="http://www.w3.org/2000/svg" width="1024" height="1025" viewBox="0 0 1024 1025" fill="none">
  <path d="M1020.13 656.806L944.702 577.56C942.051 574.775 938.373 573.211 934.533 573.211L901.73 573.211C901.73 573.194 901.732 573.179 901.732 573.162L901.732 554.918C901.732 546.004 894.502 538.766 885.586 538.766C876.664 538.766 869.44 546.005 869.44 554.918L869.44 573.162C869.44 573.179 869.442 573.194 869.442 573.211L657.434 573.211L657.434 520.916L880.869 297.483C891.834 286.519 891.834 268.737 880.869 257.77C869.905 246.805 852.123 246.805 841.156 257.77L614.959 483.967L578.81 483.967L578.81 573.211L548.585 573.211L548.585 329.524C548.585 321.762 542.295 315.477 534.544 315.477L516.742 315.477L516.742 306.353C516.742 297.437 509.51 290.214 500.596 290.214C491.674 290.214 484.45 297.437 484.45 306.353L484.45 315.477L359.995 315.477C355.988 315.477 352.164 317.203 349.502 320.194L215.509 470.913L142.303 470.913C141.031 470.869 139.772 470.858 138.533 470.858C69.163 470.858 41.491 521.675 36.316 549.308L32.392 562.654L17.12 562.654C7.66398 562.654 -1.78057e-05 570.327 -1.69799e-05 579.773L-9.66852e-06 663.405C-9.03296e-06 670.675 4.54599 676.88 10.947 679.358C12.678 680.103 14.557 680.526 16.493 680.526L61.013 680.526C64.864 732.708 108.524 774 161.679 774C214.829 774 258.49 732.708 262.341 680.526L735.212 680.526C739.06 732.708 782.721 774 835.873 774C889.029 774 932.688 732.708 936.537 680.526L1009.96 680.526C1015.58 680.526 1020.65 677.172 1022.86 672.018C1025.07 666.851 1024 660.865 1020.13 656.806L1020.13 656.806ZM161.681 723.696C133.74 723.696 111.01 700.968 111.01 673.033C111.01 645.096 133.74 622.369 161.681 622.369C189.617 622.369 212.345 645.097 212.345 673.033C212.345 700.968 189.617 723.696 161.681 723.696ZM485.486 461.504L317.805 461.504L399.789 366.027L485.486 366.027L485.486 461.504ZM835.874 723.696C807.936 723.696 785.21 700.968 785.21 673.033C785.21 645.096 807.938 622.369 835.874 622.369C863.814 622.369 886.545 645.097 886.545 673.033C886.545 700.968 863.814 723.696 835.874 723.696Z" fill="#FECF60"></path>
</svg>
