<?xml version="1.0" encoding="UTF-8"?>
<svg xmlns="http://www.w3.org/2000/svg" width="1024" height="1025" viewBox="0 0 1024 1025" fill="none">
  <path d="M511.639 50.721C258.08 50.721 49.9999 258.801 50 512.361C50 765.921 258.08 974 511.639 974C765.198 974 973.278 765.92 973.278 512.361C973.278 258.802 765.198 50.7209 511.639 50.721ZM511.639 158.917C671.114 158.917 807.729 267.537 850.635 413.309C848.179 407.056 843.501 401.652 836.923 398.615C762.379 364.116 643.953 323.015 511.638 323.015C379.323 323.015 260.897 364.116 186.353 398.615C179.776 401.653 175.097 407.055 172.641 413.309C215.547 267.537 352.162 158.917 511.637 158.917L511.639 158.917ZM165.184 582.006C167.894 592.17 176.422 600.247 187.491 601.828L252.48 610.863C335.239 622.671 401.329 688.761 413.137 771.52L422.172 836.509C423.542 846.098 429.891 853.593 438.143 857.236C302.008 828.034 192.774 718.736 165.184 582.006ZM511.639 593.508C466.892 593.508 430.491 557.106 430.491 512.36C430.491 467.613 466.892 431.212 511.639 431.212C556.386 431.212 592.787 467.613 592.787 512.36C592.787 557.105 556.386 593.508 511.639 593.508ZM585.135 857.233C593.387 853.59 599.736 846.097 601.106 836.506L610.141 771.517C621.949 688.758 688.039 622.668 770.798 610.86L835.787 601.825C846.856 600.244 855.384 592.166 858.095 582.003C830.504 718.736 721.27 828.033 585.135 857.233ZM511.639 485.31C496.715 485.31 484.59 497.437 484.59 512.36C484.59 527.283 496.715 539.409 511.639 539.409C526.563 539.409 538.688 527.284 538.688 512.36C538.688 497.436 526.563 485.31 511.639 485.31Z" fill="#FECF60"></path>
</svg>
