<svg width="40" height="31" viewBox="0 0 40 31" fill="none" xmlns="http://www.w3.org/2000/svg">
<path d="M16.6033 13.9733L15.0953 11.0493L17.0953 13.204H25.1593L16.6033 13.9733Z" fill="url(#paint0_linear_171_7867)"/>
<path d="M18.868 8.12061L17.6 8.73678H19.6C19.624 8.24307 19.12 8.12061 18.868 8.12061Z" fill="url(#paint1_linear_171_7867)"/>
<path d="M5.53544 9.50671L4.27544 9.9698C3.77144 6.88511 4.27544 4.42424 4.02344 4.42424C16.5034 -3.586 30.6914 1.08696 36.2234 4.42424V6.72054L34.7154 6.41054V5.1935C21.8354 -1.95564 9.72744 2.21597 5.28344 5.1935L5.53544 9.50671Z" fill="white"/>
<path d="M3.27217 14.8997H5.27216L6.02416 14.7466C4.42416 14.8691 4.02416 14.3868 4.02416 14.1304V12.7412L5.28416 13.0512C4.78444 12.9428 4.33928 12.6723 4.02416 12.2857C4.82416 11.5471 6.54016 11.3596 7.29616 11.3596L7.54816 11.8226C10.3482 7.99548 13.5842 10.2305 14.8442 11.8226C15.0442 11.7002 14.5922 10.95 14.3402 10.5903L27.1682 9.51104L28.1762 9.04795C27.6722 9.51104 26.6682 10.6821 26.6682 11.6696C28.0762 8.60783 31.6122 9.04795 33.2082 9.66412C33.2082 9.41919 32.3682 8.94844 31.9482 8.74178L32.9562 9.04795L35.2202 8.89486L35.9762 9.6603H34.9682C34.8002 9.76363 34.5162 10.0009 34.7162 10.1234C35.2376 10.2509 35.7176 10.5006 36.1129 10.8501C36.5082 11.1995 36.8062 11.6377 36.9802 12.125C37.2322 12.125 37.2322 10.4334 36.4762 9.50721C36.2656 9.24122 36.1516 8.91664 36.1516 8.58295C36.1516 8.24926 36.2656 7.92472 36.4762 7.65869H35.2202C34.2122 8.73795 19.8722 9.35412 16.6042 9.04412C13.9882 8.79919 13.0042 9.04412 12.8282 9.20104C12.9962 9.30054 13.3322 9.53783 13.3322 9.6603C11.1202 8.30548 8.88816 9.50721 8.05216 10.2765V9.81721C7.04416 9.9703 2.51617 12.1135 3.27217 12.435C3.55631 12.7883 3.71038 13.2215 3.71038 13.6673C3.71038 14.1131 3.55631 14.5464 3.27217 14.8997Z" fill="white"/>
<path d="M0 16.284V17.5164L37.736 13.5132L0 16.284Z" fill="white"/>
<path d="M8.55156 22.9087V23.3718L11.8236 23.0656V22.6025L8.55156 22.9087Z" fill="white"/>
<path d="M23.1446 17.0578L22.6406 21.0495C23.0406 21.172 25.1566 20.8964 26.1646 20.7433V19.6755C26.1646 19.9205 25.3246 19.9817 24.9046 19.9817V19.0594C25.9126 18.8144 25.9966 18.6499 25.9126 18.5963V17.9878L24.9046 18.1408V17.517C25.4152 17.486 25.9188 17.3868 26.4006 17.2223V16.2847C25.1406 16.4416 22.6766 16.7478 22.8766 16.7478C23.0766 16.7478 23.1446 16.9544 23.1446 17.0578Z" fill="white"/>
<path d="M31.6952 19.6748C31.4952 19.7973 31.7792 20.1379 31.9472 20.291L33.4592 20.1379C32.8552 19.7552 33.3752 18.6491 33.7112 18.1324L33.9592 19.981L35.4712 19.8279L35.9752 17.8263L36.4752 19.6748L38.2392 19.5179C38.165 19.4642 38.1046 19.3948 38.063 19.3152C38.0214 19.2355 37.9996 19.1477 37.9992 19.0586L37.2312 15.2085L35.4712 15.3616C35.8712 15.7443 35.3032 16.747 34.9672 17.2101L34.7152 15.5147C33.9592 15.5644 32.5032 15.6984 32.7152 15.8247C32.9272 15.951 32.9672 16.0811 32.9672 16.1308C32.6192 17.2599 31.8992 19.5523 31.6952 19.6748Z" fill="white"/>
<path d="M18.6156 8.27418L19.1196 8.41961H19.3716L19.1196 8.2627L18.6156 8.27418Z" fill="white"/>
<path d="M23.8998 8.73749C26.9198 8.73749 31.5318 8.12131 33.4598 7.81131C29.4358 6.12354 24.1518 6.12354 22.6438 6.12354C21.4438 6.12354 17.6118 7.76921 15.8438 8.59205H17.0998C21.3278 6.00107 25.0678 6.29576 26.4078 6.73971L26.1558 8.27057C25.7638 8.39687 24.4878 8.63415 23.8998 8.73749ZM27.1678 6.73588C28.1758 6.88897 30.0878 7.2602 29.6838 7.50131C29.2798 7.74242 27.6838 8.01415 26.9158 8.11749L27.1678 6.73588Z" fill="url(#paint2_linear_171_7867)"/>
<path d="M2 24.7574L11.556 24.1412C13.6 26.7628 19.624 30.766 19.624 30.6167C22.024 29.1356 26.668 24.876 28.68 22.9127L40 22.1472V20.9072L2 24.7574ZM19.6 28.9175C17.776 27.5856 14 24.7612 13.6 24.145L26.4 23.2188C24.82 24.7612 21.232 28.0564 19.624 28.9175H19.6Z" fill="url(#paint3_linear_171_7867)"/>
<path d="M6.80032 18.4438L4.53632 18.5969C4.80032 19.2131 3.52031 22.1409 3.27231 22.4509C3.11035 22.6763 3.02258 22.9428 3.02031 23.2163L4.78032 23.0632C4.71008 22.9181 4.67372 22.7601 4.67372 22.6001C4.67372 22.4402 4.71008 22.2822 4.78032 22.1371H5.53632L5.78832 22.9025L7.78832 22.7494V22.5963C7.39632 22.604 6.96032 19.8293 6.80032 18.4438ZM5.04032 21.2185L5.29232 20.6024L5.54432 21.2185H5.04032Z" fill="white"/>
<path d="M15.8486 17.6736C15.0966 17.5167 13.1326 17.7042 12.3286 17.8267C12.5286 17.9492 12.5806 18.0831 12.5806 18.1329L12.0766 22.293C12.0766 22.293 14.5926 22.4499 15.5966 21.8299C17.1086 20.9076 16.8566 17.9874 15.8486 17.6736ZM14.8446 19.369C14.8319 19.8878 14.7472 20.4026 14.5926 20.8999C14.5926 20.9535 14.4926 21.053 14.0886 21.053L14.3406 18.5883C14.5926 18.4964 15.0446 18.5041 14.8446 19.369Z" fill="white"/>
<path d="M21.1315 19.5179C22.1355 18.9018 21.8875 17.8225 21.8875 17.2216C21.8875 16.6208 17.5995 17.2216 17.8595 17.2216C18.1195 17.2216 18.1115 17.4245 18.1115 17.5278C18.014 18.5579 17.8456 19.5807 17.6075 20.5895C17.4075 21.2057 17.5235 21.5655 17.6075 21.6688L19.6075 21.5157L19.3555 21.3626V19.8318L20.1075 21.3626L21.8715 21.2057V20.2834H21.3835C21.3562 20.0142 21.2703 19.7535 21.1315 19.5179ZM20.1235 18.9056C20.048 18.9491 19.9616 18.9721 19.8735 18.9721C19.7854 18.9721 19.699 18.9491 19.6235 18.9056V17.9871C19.699 17.9435 19.7854 17.9205 19.8735 17.9205C19.9616 17.9205 20.048 17.9435 20.1235 17.9871C20.3275 18.1057 20.2075 18.6492 20.1235 18.9056Z" fill="white"/>
<path d="M31.4448 20.2841C31.2448 20.2841 31.1968 19.9741 31.1968 19.821L30.4408 15.9785L28.1768 16.1316V16.2847C28.7808 16.6674 27.4208 19.4191 26.6688 20.7548L28.4288 20.5979C28.0288 20.353 28.2608 19.8822 28.4288 19.6756H29.4328C29.4328 20.1693 29.6008 20.3951 29.6848 20.441C30.3568 20.3951 31.6488 20.2841 31.4448 20.2841ZM28.6808 18.9063L28.9328 18.1409L29.1808 18.9063H28.6808Z" fill="white"/>
<defs>
<linearGradient id="paint0_linear_171_7867" x1="20.1273" y1="6.11611" x2="20.1273" y2="30.6176" gradientUnits="userSpaceOnUse">
<stop stop-color="#FFF56D"/>
<stop offset="1" stop-color="#FECC5F"/>
</linearGradient>
<linearGradient id="paint1_linear_171_7867" x1="110.718" y1="48.8004" x2="110.718" y2="9.35291" gradientUnits="userSpaceOnUse">
<stop stop-color="#FFF56D"/>
<stop offset="1" stop-color="#FECC5F"/>
</linearGradient>
<linearGradient id="paint2_linear_171_7867" x1="1101.69" y1="65.8001" x2="1101.69" y2="-101.545" gradientUnits="userSpaceOnUse">
<stop stop-color="#FFF56D"/>
<stop offset="1" stop-color="#FECC5F"/>
</linearGradient>
<linearGradient id="paint3_linear_171_7867" x1="1997.76" y1="1173.32" x2="1997.76" y2="551.559" gradientUnits="userSpaceOnUse">
<stop stop-color="#FFF56D"/>
<stop offset="1" stop-color="#FECC5F"/>
</linearGradient>
</defs>
</svg>
